<?xml version="1.0" encoding="UTF-8" standalone="no"?>
<!-- Created with Inkscape (http://www.inkscape.org/) -->

<svg
   width="159mm"
   height="188mm"
   viewBox="0 0 159 188"
   version="1.1"
   id="svg1"
   xml:space="preserve"
   inkscape:version="1.4.2 (f4327f4, 2025-05-13)"
   sodipodi:docname="01_Logo_svg.svg"
   xmlns:inkscape="http://www.inkscape.org/namespaces/inkscape"
   xmlns:sodipodi="http://sodipodi.sourceforge.net/DTD/sodipodi-0.dtd"
   xmlns="http://www.w3.org/2000/svg"
   xmlns:svg="http://www.w3.org/2000/svg"><sodipodi:namedview
     id="namedview1"
     pagecolor="#ffffff"
     bordercolor="#000000"
     borderopacity="0.25"
     inkscape:showpageshadow="2"
     inkscape:pageopacity="0.0"
     inkscape:pagecheckerboard="0"
     inkscape:deskcolor="#d1d1d1"
     inkscape:document-units="mm"
     inkscape:zoom="1"
     inkscape:cx="215.5"
     inkscape:cy="410.5"
     inkscape:window-width="1920"
     inkscape:window-height="1111"
     inkscape:window-x="-9"
     inkscape:window-y="-9"
     inkscape:window-maximized="1"
     inkscape:current-layer="layer-oc3"><inkscape:page
       x="0"
       y="0"
       width="159"
       height="188"
       id="page1"
       margin="0"
       bleed="0"
       inkscape:export-filename="01_Logo_png.png"
       inkscape:export-xdpi="300"
       inkscape:export-ydpi="300" /><inkscape:page
       x="220"
       y="0"
       width="297.03891"
       height="209.90279"
       id="page2"
       margin="0"
       bleed="0" /></sodipodi:namedview><defs
     id="defs1"><clipPath
       clipPathUnits="userSpaceOnUse"
       id="clipPath2"><path
         d="M 0,97 H 18896 V 24849 H 0 V 97"
         transform="translate(8.3333336e-5,8.3333334e-4)"
         id="path2" /></clipPath><clipPath
       clipPathUnits="userSpaceOnUse"
       id="clipPath7"><path
         d="M 0,97 H 18896 V 24849 H 0 V 97"
         transform="translate(8.3333336e-5,8.3333334e-4)"
         id="path7" /></clipPath><clipPath
       clipPathUnits="userSpaceOnUse"
       id="clipPath794"><path
         d="M 0,97 H 18896 V 24849 H 0 V 97"
         transform="matrix(0,-1,-1,0,10923,6261.9999)"
         id="path794" /></clipPath><clipPath
       clipPathUnits="userSpaceOnUse"
       id="clipPath795"><path
         d="M 0,97 H 18896 V 24849 H 0 V 97"
         transform="matrix(0,-1,-1,0,9410.9999,6261.9999)"
         id="path795" /></clipPath><clipPath
       clipPathUnits="userSpaceOnUse"
       id="clipPath796"><path
         d="M 0,97 H 18896 V 24849 H 0 V 97"
         transform="matrix(0,-1,-1,0,8752.9999,6261.9999)"
         id="path796" /></clipPath><clipPath
       clipPathUnits="userSpaceOnUse"
       id="clipPath797"><path
         d="M 0,97 H 18896 V 24849 H 0 V 97"
         transform="matrix(0,-1,-1,0,18614,2765.9999)"
         id="path797" /></clipPath><clipPath
       clipPathUnits="userSpaceOnUse"
       id="clipPath798"><path
         d="M 0,97 H 18896 V 24849 H 0 V 97"
         transform="matrix(0,-1,-1,0,17660,2765.9999)"
         id="path798" /></clipPath><clipPath
       clipPathUnits="userSpaceOnUse"
       id="clipPath799"><path
         d="M 0,97 H 18896 V 24849 H 0 V 97"
         transform="matrix(0,-1,-1,0,14209,2765.9999)"
         id="path799" /></clipPath><clipPath
       clipPathUnits="userSpaceOnUse"
       id="clipPath800"><path
         d="M 0,97 H 18896 V 24849 H 0 V 97"
         transform="matrix(0,-1,-1,0,13832,2765.9999)"
         id="path800" /></clipPath><clipPath
       clipPathUnits="userSpaceOnUse"
       id="clipPath801"><path
         d="M 0,97 H 18896 V 24849 H 0 V 97"
         transform="matrix(0,-1,-1,0,12535,1370.9999)"
         id="path801" /></clipPath><clipPath
       clipPathUnits="userSpaceOnUse"
       id="clipPath802"><path
         d="M 0,97 H 18896 V 24849 H 0 V 97"
         transform="matrix(0,-1,-1,0,11580,1370.9999)"
         id="path802" /></clipPath><clipPath
       clipPathUnits="userSpaceOnUse"
       id="clipPath803"><path
         d="M 0,97 H 18896 V 24849 H 0 V 97"
         transform="matrix(0,-1,-1,0,14193,1410.9999)"
         id="path803" /></clipPath><clipPath
       clipPathUnits="userSpaceOnUse"
       id="clipPath805"><path
         d="M 0,0 H 18897 V 24850 H 0 V 0"
         transform="translate(8.3333336e-5,8.3333334e-4)"
         id="path805" /></clipPath></defs><g
     id="layer-oc1"
     inkscape:groupmode="layer"
     inkscape:label="grey_fill"
     transform="matrix(0.26458334,0,0,0.26458334,220.00001,0)"><path
       id="path1"
       clip-path="url(#clipPath2)"
       style="fill:#7f7f7f;fill-opacity:1;fill-rule:nonzero;stroke:#7f7f7f;stroke-width:1;stroke-linecap:butt;stroke-linejoin:miter;stroke-miterlimit:10;stroke-dasharray:none;stroke-opacity:1"
       d="M 16255.135 12544.938 C 16248.489 12865.886 16149.049 13181.277 15964.217 13451.042 C 15700.873 13835.396 15288.559 14091.551 14827.645 14157.634 A 42.5 42.5 0 0 0 14825.008 14157.487 L 14825.008 12934.489 C 15381.82 12934.641 15903.144 12669.019 16230.575 12223.6 C 16249.261 12330.33 16257.35 12437.956 16255.135 12544.938 z M 14823.983 14157.487 L 8424.8131 14157.487 L 8423.983 14157.487 L 8423.69 14157.487 C 7867.2421 14158.054 7346.5559 14424.038 7019.6373 14869.499 C 6944.5166 14442.225 7039.1329 14000.997 7285.7994 13640.983 C 7548.6614 13257.333 7959.893 13001.342 8419.7838 12934.684 C 8422.2918 12934.575 8424.7931 12934.493 8427.3033 12934.391 A 42.5 42.5 0 0 0 8434.2857 12933.513 L 14815.78 12933.513 A 42.5 42.5 0 0 0 14823.983 12934.489 L 14823.983 14157.487 z "
       transform="matrix(0,-0.04,-0.04,0,-13.257149,716.68392)" /><rect
       style="fill:#7f7f7f;fill-opacity:1;stroke-width:0.18941;stroke-linejoin:round"
       id="rect1"
       width="48.811237"
       height="1.7907858"
       x="-579.49609"
       y="122.95673" /></g><g
     id="layer-oc5"
     inkscape:groupmode="layer"
     inkscape:label="black_fill"
     transform="matrix(0.26458333,0,0,0.26458333,220.00001,0)"><path
       id="path118"
       style="fill:#000000;fill-opacity:1;fill-rule:nonzero;stroke:#000000;stroke-width:0.0415748;stroke-linecap:round;stroke-linejoin:round;stroke-miterlimit:10;stroke-dasharray:none;stroke-opacity:1"
       d="M -487.47658 35.34375 C -528.85608 35.34375 -564.04478 62.639394 -575.61525 100.4961 C -570.36869 90.506067 -562.72677 81.82373 -553.22072 75.310548 C -541.01996 66.951064 -526.59497 62.744472 -512.05079 63.082032 C -507.2037 63.19453 -502.34305 63.812848 -497.54689 64.94922 L -497.54494 64.94922 A 1.7000001 1.7000001 0 0 1 -497.30861 65.025391 C -469.43525 71.735872 -448.46116 94.771778 -444.41603 123.14844 A 1.6999994 1.6999994 0 0 1 -444.31642 123.7207 L -444.31642 394.42188 L -395.35939 394.42188 L -395.35939 124.04883 A 1.7000001 1.7000001 0 0 1 -395.39259 123.77539 C -397.39338 74.349703 -438.01041 35.34375 -487.47658 35.34375 z M -714.79494 108.94141 L -714.79494 379.6875 A 1.6999994 1.6999994 0 0 1 -714.79689 379.75 C -712.72151 428.96543 -672.35259 467.81106 -623.12306 468.02344 L -622.83595 467.5879 A 1.7001701 1.7001701 0 0 1 -622.82228 467.56641 L -621.54689 465.69337 L -620.91603 464.74805 L -620.33009 463.84962 L -619.7383 462.90235 L -619.13869 461.94337 L -618.55275 461.00587 L -618.00587 460.06641 L -617.45314 459.1211 L -616.91408 458.15626 L -616.40626 457.17969 L -615.89845 456.20313 L -615.4297 455.22852 L -614.96681 454.26368 L -614.54298 453.26172 L -614.10353 452.22071 L -613.67384 451.20704 L -613.28322 450.19337 L -612.88478 449.1543 L -612.49806 448.1504 L -612.15041 447.10547 L -611.78908 446.0254 A 1.7001701 1.7001701 0 0 1 -611.78322 446.00782 L -611.42775 444.97657 L -611.07423 443.91993 L -610.40431 441.79102 L -609.76955 439.60938 A 1.7001701 1.7001701 0 0 1 -609.75783 439.57422 L -609.59962 439.06836 C -610.61846 438.87437 -611.63463 438.65823 -612.64845 438.41797 A 1.7000001 1.7000001 0 0 0 -612.65041 438.41797 A 1.7000001 1.7000001 0 0 1 -612.87501 438.34571 C -628.09012 434.685 -641.11446 426.04852 -650.58791 414.44532 L -651.11134 413.79102 L -651.75197 413.07227 L -652.93752 411.44141 C -653.81098 410.24399 -654.67944 409.05562 -655.47658 407.80274 L -655.51173 407.75196 L -656.15041 406.67188 L -657.19142 404.95118 L -658.23048 402.99219 L -658.75197 402.07227 L -658.89259 401.77735 C -659.52901 400.51646 -660.09535 399.22856 -660.65627 397.92579 L -661.43166 396.11133 L -661.63087 395.5918 L -662.5508 393.07227 L -662.68752 392.63672 C -663.26417 390.92656 -663.74378 389.18737 -664.18947 387.42188 L -664.35158 386.79102 L -664.91212 384.19141 L -665.03127 383.5918 L -665.04689 383.4961 C -665.26988 382.33548 -665.63559 381.22664 -665.8008 380.04688 A 1.6999994 1.6999994 0 0 1 -665.83986 379.6875 L -665.83986 379.67579 A 1.7000001 1.7000001 0 0 1 -665.83986 379.61719 L -665.83986 108.94141 L -714.79494 108.94141 z M -534.58009 402.87305 C -539.82672 412.86234 -547.46893 421.54372 -556.97462 428.05665 C -571.43226 437.96245 -589.01076 442.03692 -606.21291 439.62891 L -606.50978 440.57618 L -607.14455 442.75782 A 1.7001701 1.7001701 0 0 1 -607.15626 442.79493 L -607.83595 444.95508 A 1.7001701 1.7001701 0 0 1 -607.84376 444.98243 L -608.20509 446.06055 A 1.7001701 1.7001701 0 0 1 -608.21095 446.08008 L -608.56837 447.11133 L -608.92384 448.18165 L -609.28517 449.26172 A 1.7001701 1.7001701 0 0 1 -609.31056 449.33399 L -609.71095 450.37501 L -610.11134 451.41407 L -610.50978 452.45508 A 1.7001701 1.7001701 0 0 1 -610.53126 452.50587 L -610.97072 453.54688 L -611.41212 454.58594 L -611.85158 455.62696 A 1.7001701 1.7001701 0 0 1 -611.88478 455.69922 L -612.36525 456.69922 L -612.84376 457.69922 A 1.7001701 1.7001701 0 0 1 -612.86916 457.74805 L -613.38869 458.74805 L -613.90822 459.74805 A 1.7001701 1.7001701 0 0 1 -613.93361 459.79493 L -614.49416 460.79493 A 1.7001701 1.7001701 0 0 1 -614.50783 460.82032 L -615.06837 461.78126 L -615.62892 462.74024 A 1.7001701 1.7001701 0 0 1 -615.65626 462.78516 L -616.25587 463.74415 L -616.85548 464.70508 L -617.45509 465.66407 A 1.7001701 1.7001701 0 0 1 -617.47267 465.69337 L -618.07228 466.61329 A 1.7001701 1.7001701 0 0 1 -618.08205 466.62696 L -618.72267 467.58594 A 1.7001701 1.7001701 0 0 1 -618.73244 467.60157 L -618.96876 467.94922 C -579.22485 466.35848 -545.79968 439.58054 -534.58009 402.87305 z " /></g><g
     id="layer-oc2"
     inkscape:groupmode="layer"
     inkscape:label="outline"
     transform="matrix(0.26458334,0,0,0.26458334,220.00001,0)"
     style="display:inline"><path
       style="font-weight:700;font-size:2096.66px;font-family:Aharoni;fill:#0070c0"
       d="m 1365.6955,-591.73312 q 0,125.92245 -20.4752,214.98954 -31.7366,138.20756 -151.5165,251.84489 -169.9441,160.73028 -454.54928,160.73028 -289.724,0 -452.5018,-163.80156 -85.99581,-85.99581 -117.73237,-216.0133 -22.52271,-92.13837 -22.52271,-247.74985 V -1397.432 h 363.4347 v 756.55841 q 0,91.11462 3.07128,136.16005 10.2376,142.3026 130.01749,198.60938 49.14046,23.54648 108.51853,23.54648 133.08876,0 200.6569,-93.16214 50.16426,-68.5919 50.16426,-265.15377 V -1397.432 h 363.4347 z"
       id="text793"
       clip-path="url(#clipPath794)"
       transform="matrix(0.04,0,0,0.04,-450.17719,466.20392)"
       aria-label="U" /><path
       style="font-weight:700;font-size:2096.66px;font-family:Aharoni;fill:#ff0000"
       d="m 509.83234,0 h -363.4347 v -1397.432 h 363.4347 z"
       id="text794"
       clip-path="url(#clipPath795)"
       transform="matrix(0.04,0,0,0.04,-389.69719,466.20392)"
       aria-label="I" /><path
       style="font-weight:700;font-size:2096.66px;font-family:Aharoni;fill:#ffc000"
       d="M 1474.214,0 H 1086.2091 L 996.11821,-243.65481 H 494.47595 L 398.24253,0 H 14.332636 L 551.80649,-1397.432 H 948.0015 Z M 897.83728,-520.06994 747.3446,-965.40542 594.8044,-520.06994 Z"
       id="text795"
       clip-path="url(#clipPath796)"
       transform="matrix(0.04,0,0,0.04,-363.37719,466.20392)"
       aria-label="A" /><path
       style="font-weight:600;font-size:1336.6px;font-family:'Avenir Next LT Pro';fill:#0070c0"
       d="m 858.09718,-946.31278 v 598.79679 q 0,168.41159 -108.26459,269.993191 Q 642.90459,24.0588 477.16619,24.0588 311.42779,24.0588 203.1632,-77.522799 96.235198,-179.1044 96.235198,-347.51599 V -946.31278 H 264.6468 v 592.11379 q 0,94.89859 50.79079,161.72859 50.7908,65.4934 161.7286,65.4934 110.9378,0 161.7286,-65.4934 50.7908,-66.83 50.7908,-161.72859 v -592.11379 z"
       id="text796"
       clip-path="url(#clipPath797)"
       transform="matrix(0.04,0,0,0.04,-757.81719,606.04392)"
       aria-label="U" /><path
       style="font-weight:600;font-size:1336.6px;font-family:'Avenir Next LT Pro'"
       d="M 96.235198,0 V -641.56799 H 249.9442 v 106.928 h 2.6732 q 26.73199,-57.4738 76.18619,-90.8888 49.4542,-34.7516 110.9378,-34.7516 22.7222,0 38.7614,4.0098 v 147.026 q -26.732,-6.683 -49.4542,-6.683 -41.4346,0 -73.513,13.366 -32.0784,13.366 -50.7908,33.415 -17.3758,20.049 -29.4052,45.4444 -10.69279,24.0588 -14.70259,44.1078 -4.0098,20.049 -4.0098,36.0882 V 0 Z M 585.43123,-1010.4696 h 160.39199 v 450.43421 h 4.0098 q 80.196,-100.245 215.1926,-100.245 136.33318,0 223.21218,96.2352 88.2156,96.2352 88.2156,240.588 0,144.35279 -86.879,243.261191 Q 1104.032,18.7124 961.01582,18.7124 q -68.1666,0 -128.3136,-29.4052 -60.147,-30.741799 -92.2254,-85.542398 h -2.6732 V 0 H 585.43123 Z m 478.50277,832.7018 q 49.4542,-62.8202 49.4542,-145.68939 0,-82.8692 -49.4542,-144.3528 -48.1176,-61.4836 -134.99658,-61.4836 -84.2058,0 -136.3332,64.1568 -52.1274,64.1568 -52.1274,144.3528 0,80.19599 52.1274,143.01619 52.1274,62.8202 136.3332,62.8202 86.87898,0 134.99658,-62.8202 z M 1829.8062,0 v -81.532599 h -4.0098 q -24.0588,42.7712 -78.8594,70.839799 -53.464,26.732 -120.294,26.732 -92.2254,0 -167.075,-48.117599 -73.513,-49.4542 -73.513,-151.035801 0,-54.8006 26.732,-94.89859 28.0686,-41.4346 69.5032,-64.1568 41.4346,-22.7222 102.9182,-36.0882 62.8202,-14.7026 117.6208,-18.7124 56.1372,-4.0098 124.3038,-4.0098 v -16.0392 q 0,-56.1372 -41.4346,-86.879 -41.4346,-30.7418 -105.5914,-30.7418 -101.5816,0 -175.0946,73.513 l -82.8692,-97.5718 q 109.6012,-101.5816 271.3298,-101.5816 82.8692,0 140.343,24.0588 58.8103,22.7222 89.5521,64.1568 30.7418,40.098 42.7712,85.5424 13.366,44.1078 13.366,96.2352 V 0 Z m -2.6732,-269.9932 v -22.72219 h -36.0882 q -244.5978,0 -244.5978,106.92799 0,42.7712 32.0784,61.4836 33.415,18.7124 80.196,18.7124 81.5326,0 124.3038,-42.7712 44.1078,-44.1078 44.1078,-121.6306 z M 2166.6283,0 v -641.56799 h 152.3724 v 102.9182 h 2.6732 q 22.7222,-50.7908 76.1862,-85.5424 54.8006,-36.0882 122.9672,-36.0882 117.6208,0 176.4312,76.1862 60.147,74.8496 60.147,183.1142 V 0 h -160.392 v -355.53559 q 0,-171.0848 -120.294,-171.0848 -72.1764,0 -110.9378,52.1274 -38.7614,50.7908 -38.7614,121.6306 V 0 Z"
       id="text797"
       clip-path="url(#clipPath798)"
       transform="matrix(0.04,0,0,0.04,-719.65719,606.04392)"
       aria-label="rban" /><path
       style="font-weight:600;font-size:1336.6px;font-family:'Avenir Next LT Pro';fill:#ff0000"
       d="M 104.2548,0 V -946.31278 H 272.6664 V 0 Z"
       id="text798"
       clip-path="url(#clipPath799)"
       transform="matrix(0.04,0,0,0.04,-587.61719,606.04392)"
       aria-label="I" /><path
       style="font-weight:600;font-size:1336.6px;font-family:'Avenir Next LT Pro'"
       d="M 96.235198,0 V -641.56799 H 248.6076 v 102.9182 h 2.6732 q 22.72219,-50.7908 76.18619,-85.5424 54.8006,-36.0882 122.9672,-36.0882 117.6208,0 176.4312,76.1862 60.147,74.8496 60.147,183.1142 V 0 h -160.392 v -355.53559 q 0,-171.0848 -120.294,-171.0848 -72.1764,0 -110.9378,52.1274 -38.76139,50.7908 -38.76139,121.6306 V 0 Z M 894.18636,-513.25439 h -112.2744 v -128.3136 h 112.2744 v -185.78739 h 157.71884 v 185.78739 h 160.392 v 128.3136 h -160.392 v 298.06179 q 0,48.1176 17.3758,73.513 17.3758,25.3954 66.83,25.3954 41.4346,0 68.1666,-13.366 l 5.3464,125.6404001 Q 1164.1796,13.366 1102.696,13.366 985.07516,13.366 939.63076,-46.780999 894.18636,-108.2646 894.18636,-213.856 Z m 557.36234,128.3136 h 328.8036 q 0,-66.83 -38.7614,-110.9378 -38.7614,-44.1078 -112.2744,-44.1078 -70.8398,0 -121.6306,44.1078 -50.7908,44.1078 -56.1372,110.9378 z m 489.1956,72.1764 q 0,28.0686 -1.3366,42.77119 h -487.859 q 5.3464,66.83 58.8104,112.2744 53.464,45.4444 124.3038,45.4444 110.9378,0 169.7482,-82.8692 l 106.928,85.5424 q -94.8986,128.3136 -275.3396,128.3136 -151.0358,0 -248.6076,-90.888799 -96.2352,-90.888801 -96.2352,-244.597791 0,-153.709 96.2352,-248.6076 96.2352,-94.8986 243.2612,-94.8986 139.0064,0 224.5488,89.5522 85.5424,89.5522 85.5424,257.9638 z M 2098.4624,0 v -1010.4696 h 160.392 V 0 Z m 358.2082,0 v -1010.4696 h 160.392 V 0 Z m 358.2083,0 v -641.56799 h 160.392 V 0 Z m 6.683,-791.26719 q -29.4052,-29.4052 -29.4052,-68.16659 0,-38.7614 29.4052,-66.83 29.4052,-29.4052 72.1764,-29.4052 44.1078,0 73.513,28.0686 30.7418,26.732 30.7418,68.1666 0,41.43459 -30.7418,69.50319 -29.4052,26.732 -73.513,26.732 -42.7712,0 -72.1764,-28.0686 z m 848.7406,149.6992 h 152.3724 v 584.094191 q 0,179.104399 -90.8888,278.012799 -89.5522,100.24499 -271.3298,100.24499 -81.5326,0 -169.7481,-28.0686 -88.2156,-28.06859 -148.3626,-77.52279 L 3234.571,90.888798 q 94.8986,90.888802 224.5487,90.888802 203.1632,0 203.1632,-220.538999 v -46.780999 h -2.6732 Q 3587.4333,10.6928 3449.7635,10.6928 q -140.3429,0 -228.5585,-96.235198 -88.2156,-97.571802 -88.2156,-237.914792 0,-143.0162 85.5424,-239.2514 86.879,-97.5718 228.5585,-97.5718 151.0358,0 220.539,114.9476 h 2.6732 z m -189.7972,112.2744 q -84.2058,0 -134.9965,58.8104 -49.4542,57.4738 -49.4542,145.6894 0,81.53259 49.4542,143.01619 50.7907,60.147 133.6599,60.147 85.5424,0 137.6698,-58.8104 53.464,-60.147 53.464,-144.35279 0,-85.5424 -52.1274,-144.3528 -52.1274,-60.147 -137.6698,-60.147 z m 657.607,144.3528 h 328.8036 q 0,-66.83 -38.7614,-110.9378 -38.7614,-44.1078 -112.2744,-44.1078 -70.8398,0 -121.6306,44.1078 -50.7908,44.1078 -56.1372,110.9378 z m 489.1956,72.1764 q 0,28.0686 -1.3366,42.77119 h -487.859 q 5.3464,66.83 58.8104,112.2744 53.464,45.4444 124.3038,45.4444 110.9378,0 169.7482,-82.8692 l 106.928,85.5424 q -94.8986,128.3136 -275.3396,128.3136 -151.0358,0 -248.6076,-90.888799 -96.2352,-90.888801 -96.2352,-244.597791 0,-153.709 96.2352,-248.6076 96.2352,-94.8986 243.2612,-94.8986 139.0064,0 224.5488,89.5522 85.5424,89.5522 85.5424,257.9638 z M 4782.3529,0 v -641.56799 h 152.3724 v 102.9182 h 2.6732 q 22.7222,-50.7908 76.1862,-85.5424 54.8006,-36.0882 122.9672,-36.0882 117.6208,0 176.4312,76.1862 60.147,74.8496 60.147,183.1142 V 0 h -160.392 v -355.53559 q 0,-171.0848 -120.294,-171.0848 -72.1764,0 -110.9378,52.1274 -38.7614,50.7908 -38.7614,121.6306 V 0 Z m 1325.9078,-560.03539 -109.6012,96.2352 q -18.7124,-26.732 -56.1372,-44.1078 -37.4248,-18.7124 -76.1862,-18.7124 -82.8692,0 -129.6502,62.8202 -46.781,61.4836 -46.781,143.0162 0,82.86919 48.1176,144.35279 48.1176,61.4836 133.66,61.4836 88.2156,0 134.9966,-57.4738 l 100.245,101.581601 Q 6024.0549,18.7124 5870.3459,18.7124 q -147.026,0 -247.271,-92.225399 -100.245,-92.225401 -100.245,-247.270991 0,-152.3724 98.9084,-245.9344 98.9084,-93.562 244.5978,-93.562 70.8398,0 137.6698,26.732 66.83,26.732 104.2548,73.513 z m 227.2234,175.0946 h 328.8036 q 0,-66.83 -38.7614,-110.9378 -38.7614,-44.1078 -112.2744,-44.1078 -70.8398,0 -121.6306,44.1078 -50.7908,44.1078 -56.1372,110.9378 z m 489.1956,72.1764 q 0,28.0686 -1.3366,42.77119 h -487.859 q 5.3464,66.83 58.8104,112.2744 53.464,45.4444 124.3038,45.4444 110.9378,0 169.7482,-82.8692 l 106.928,85.5424 q -94.8986,128.3136 -275.3396,128.3136 -151.0358,0 -248.6076,-90.888799 -96.2352,-90.888801 -96.2352,-244.597791 0,-153.709 96.2352,-248.6076 96.2352,-94.8986 243.2612,-94.8986 139.0064,0 224.5488,89.5522 85.5424,89.5522 85.5424,257.9638 z"
       id="text799"
       clip-path="url(#clipPath800)"
       transform="matrix(0.04,0,0,0.04,-572.53719,606.04392)"
       aria-label="ntelligence" /><path
       style="font-weight:600;font-size:1336.6px;font-family:'Avenir Next LT Pro';fill:#ffc000"
       d="m -10.6928,0 411.67279,-946.31278 h 145.6894 L 954.33238,0 H 761.86199 l -88.2156,-216.5292 H 263.3102 L 177.7678,0 Z m 331.47679,-360.88199 h 294.052 l -145.6894,-384.9408 z"
       id="text800"
       clip-path="url(#clipPath801)"
       transform="matrix(0.04,0,0,0.04,-520.65719,661.84392)"
       aria-label="A" /><path
       style="font-weight:600;font-size:1336.6px;font-family:'Avenir Next LT Pro'"
       d="M 96.235198,0 V -641.56799 H 248.6076 v 102.9182 h 2.6732 q 22.72219,-50.7908 76.18619,-85.5424 54.8006,-36.0882 122.9672,-36.0882 117.6208,0 176.4312,76.1862 60.147,74.8496 60.147,183.1142 V 0 h -160.392 v -355.53559 q 0,-171.0848 -120.294,-171.0848 -72.1764,0 -110.9378,52.1274 -38.76139,50.7908 -38.76139,121.6306 V 0 Z M 1272.4442,0 v -81.532599 h -4.0098 q -24.0588,42.7712 -78.8594,70.839799 -53.464,26.732 -120.294,26.732 -92.22544,0 -167.07504,-48.117599 -73.513,-49.4542 -73.513,-151.035801 0,-54.8006 26.732,-94.89859 28.0686,-41.4346 69.5032,-64.1568 41.4346,-22.7222 102.91824,-36.0882 62.8202,-14.7026 117.6208,-18.7124 56.1372,-4.0098 124.3038,-4.0098 v -16.0392 q 0,-56.1372 -41.4346,-86.879 -41.4346,-30.7418 -105.5914,-30.7418 -101.5816,0 -175.09464,73.513 l -82.8692,-97.5718 q 109.6012,-101.5816 271.32984,-101.5816 82.8692,0 140.343,24.0588 58.8104,22.7222 89.5521,64.1568 30.7418,40.098 42.7712,85.5424 13.366,44.1078 13.366,96.2352 V 0 Z m -2.6732,-269.9932 v -22.72219 h -36.0882 q -244.59784,0 -244.59784,106.92799 0,42.7712 32.07844,61.4836 33.415,18.7124 80.196,18.7124 81.5326,0 124.3038,-42.7712 44.1078,-44.1078 44.1078,-121.6306 z M 1611.9395,0 v -1010.4696 h 160.392 V 0 Z m 534.6396,0 -275.3396,-641.56799 h 177.7678 l 179.1044,466.47339 h 2.6732 l 159.0554,-466.47339 h 167.075 L 2253.5071,137.6698 q -37.4248,94.8986 -90.8888,139.00639 -52.1274,44.1078 -152.3724,44.1078 -44.1078,0 -82.8692,-9.3562 l 13.366,-139.00639 q 29.4052,9.3562 60.147,9.3562 48.1176,0 69.5032,-22.7222 21.3856,-21.3856 44.1078,-77.522801 z m 526.6211,-513.25439 h -112.2744 v -128.3136 h 112.2744 v -185.78739 h 157.7188 v 185.78739 h 160.392 v 128.3136 h -160.392 v 298.06179 q 0,48.1176 17.3758,73.513 17.3758,25.3954 66.83,25.3954 41.4346,0 68.1666,-13.366 l 5.3464,125.6404001 Q 2943.1934,13.366 2881.7098,13.366 2764.089,13.366 2718.6446,-46.780999 2673.2002,-108.2646 2673.2002,-213.856 Z M 3110.2685,0 v -641.56799 h 160.392 V 0 Z m 6.683,-791.26719 q -29.4052,-29.4052 -29.4052,-68.16659 0,-38.7614 29.4052,-66.83 29.4052,-29.4052 72.1764,-29.4052 44.1078,0 73.513,28.0686 30.7418,26.732 30.7418,68.1666 0,41.43459 -30.7418,69.50319 -29.4052,26.732 -73.513,26.732 -42.7712,0 -72.1764,-28.0686 z m 896.858,231.2318 -109.6012,96.2352 q -18.7124,-26.732 -56.1371,-44.1078 -37.4248,-18.7124 -76.1862,-18.7124 -82.8692,0 -129.6502,62.8202 -46.781,61.4836 -46.781,143.0162 0,82.86919 48.1176,144.35279 48.1176,61.4836 133.66,61.4836 88.2156,0 134.9965,-57.4738 l 100.245,101.581601 Q 3929.6037,18.7124 3775.8948,18.7124 q -147.026,0 -247.271,-92.225399 -100.245,-92.225401 -100.245,-247.270991 0,-152.3724 98.9084,-245.9344 98.9084,-93.562 244.5978,-93.562 70.8398,0 137.6697,26.732 66.83,26.732 104.2548,73.513 z m 560.0366,-2.6732 -104.2548,92.2254 q -22.7222,-29.4052 -60.147,-49.4542 -37.4248,-20.049 -80.196,-20.049 -42.7712,0 -73.513,17.3758 -29.4052,17.3758 -29.4052,52.1274 0,33.415 30.7418,49.4542 30.7418,16.0392 108.2646,34.7516 41.4346,9.3562 73.513,22.7222 32.0784,12.0294 64.1568,33.415 33.415,21.3856 50.7908,56.1372 18.7124,34.75159 18.7124,78.85939 0,109.601202 -76.1862,161.728601 -74.8496,52.127399 -191.1338,52.127399 -76.1862,0 -147.026,-28.0685998 -70.8398,-28.0685992 -116.2842,-77.5227982 l 105.5914,-98.908402 q 61.4836,80.196 164.4018,80.196 41.4346,0 72.1764,-18.7124 30.7418,-18.7124 30.7418,-57.4738 0,-37.4248 -33.415,-54.8006 -32.0784,-18.7124 -113.611,-37.42479 -86.879,-21.3856 -139.0064,-60.147 -50.7908,-40.098 -50.7908,-121.6306 0,-100.245 74.8496,-152.3724 74.8496,-52.1274 180.441,-52.1274 72.1764,0 137.6698,25.3954 65.4934,25.3954 102.9182,72.1764 z"
       id="text801"
       clip-path="url(#clipPath802)"
       transform="matrix(0.04,0,0,0.04,-482.45719,661.84392)"
       aria-label="nalytics" /><path
       style="font-weight:600;font-size:1336.6px;font-family:'Avenir Next LT Pro'"
       d="M 951.65918,-499.88839 761.86199,-225.8854 982.40098,0 H 768.54499 L 664.29019,-108.2646 Q 556.02559,18.7124 380.93099,18.7124 248.6076,18.7124 156.3822,-53.463999 64.156799,-126.977 64.156799,-256.6272 q 0,-180.44099 205.836401,-268.65659 -101.5816,-104.2548 -101.5816,-212.5194 0,-113.61099 78.8594,-172.42139 80.19599,-60.147 188.46059,-60.147 109.6012,0 185.7874,60.147 76.1862,58.8104 76.1862,169.74819 0,161.7286 -193.807,251.2808 l 155.0456,161.7286 109.6012,-172.4214 z m -435.73159,-310.0912 q -30.7418,-30.74179 -77.5228,-30.74179 -46.781,0 -78.8594,30.74179 -32.0784,29.4052 -32.0784,74.8496 0,74.8496 84.2058,151.0358 136.3332,-57.4738 136.3332,-151.0358 0,-44.1078 -32.0784,-74.8496 z m 46.781,597.46019 -201.8266,-209.84619 q -130.98679,48.1176 -130.98679,159.05539 0,65.4934 48.11759,106.928 49.4542,41.4346 108.2646,41.4346 105.5914,0 176.4312,-97.5718 z"
       id="text802"
       clip-path="url(#clipPath803)"
       transform="matrix(0.04,0,0,0.04,-586.97719,660.24392)"
       aria-label="&amp;" /><path
       id="path804"
       d="M 0,96 H 18896"
       style="display:none;fill:none;stroke:#ffffff;stroke-width:1;stroke-linecap:round;stroke-linejoin:round;stroke-miterlimit:10;stroke-dasharray:none;stroke-opacity:1"
       transform="matrix(0,-0.04,-0.04,0,1058.6667,774.66667)"
       clip-path="url(#clipPath805)" /></g><g
     id="layer-oc3"
     inkscape:groupmode="layer"
     inkscape:label="links_thin"
     transform="matrix(0.26458334,0,0,0.26458334,220.00001,0)"><path
       id="path4"
       style="baseline-shift:baseline;display:inline;overflow:visible;vector-effect:none;stroke-linecap:round;stroke-linejoin:round;stroke-miterlimit:10;enable-background:accumulate;stop-color:#000000;stop-opacity:1;opacity:1"
       d="M -377.42969 201.48242 A 0.56 0.56 0 0 0 -377.57422 201.50585 L -377.57617 201.50781 A 0.56 0.56 0 0 0 -377.91015 201.77734 L -381.62695 208.65234 L -383.54297 212.04492 L -385.49804 215.39648 L -387.52734 218.70117 L -389.67383 221.88085 L -391.95703 224.94921 L -391.95703 226.75976 L -391.0957 225.66992 A 0.560056 0.560056 0 0 0 -391.08593 225.65624 L -388.76562 222.53515 A 0.560056 0.560056 0 0 0 -388.75195 222.51562 L -386.59179 219.31445 A 0.560056 0.560056 0 0 0 -386.57812 219.29492 L -384.53711 215.9746 A 0.560056 0.560056 0 0 0 -384.53125 215.96484 L -382.57226 212.60351 A 0.560056 0.560056 0 0 0 -382.56836 212.59765 L -380.64843 209.19726 A 0.560056 0.560056 0 0 0 -380.64258 209.18749 L -376.92187 202.30859 A 0.56 0.56 0 0 0 -377.14844 201.54882 A 0.56 0.56 0 0 0 -377.42969 201.48242 z M -447.72265 274.48241 L -453.35351 278.79491 L -459.625 283.39062 L -465.94335 287.9082 A 0.56 0.56 0 0 0 -466.07226 288.68945 A 0.56 0.56 0 0 0 -465.29101 288.82031 L -458.9707 284.29882 A 0.560056 0.560056 0 0 0 -458.96679 284.29491 L -452.68554 279.69531 A 0.560056 0.560056 0 0 0 -452.67578 279.68749 L -447.72265 275.89257 L -447.72265 274.48241 z " /><path
       id="path375"
       d="m -570.97716,261.56392 -3.24,2.2 -3.16,2.32 -1.56,1.2 -1.52,1.2 -1.44,1.32 -1.44,1.32 -1.32,1.44 -1.32,1.48 -1.2,1.56 -1.08,1.6 -1,1.68 -0.92,1.76 -0.76,1.84 -0.6,1.84 -0.48,1.92 -0.16,0.96 -0.16,0.96 -0.12,1.92 -0.04,1.96 0.12,1.96 0.2,1.96 0.28,1.96 0.36,1.92 0.8,3.84 0.96,3.8 1.04,3.76 1.04,3.76"
       style="fill:none;stroke:#000000;stroke-width:1.12;stroke-linecap:round;stroke-linejoin:round;stroke-miterlimit:10;stroke-dasharray:none;stroke-opacity:1" /><path
       id="path376"
       d="m -543.61716,240.36392 4.36,-1.52 4.32,-1.56 2.16,-0.84 2.12,-0.84 2.12,-0.92 2.08,-1 2.08,-1.04 2,-1.16 2,-1.2 1.96,-1.32 1.84,-1.4 1.8,-1.52 0.8,-0.8 0.8,-0.8 0.76,-0.88 0.72,-0.88 0.68,-0.92 0.64,-0.96 0.56,-0.96 0.52,-1 0.52,-1.04 0.44,-1.04 0.8,-2.16 0.68,-2.24 0.6,-2.28 0.48,-2.32 0.4,-2.32 0.68,-4.68 0.6,-4.6 0.52,-4.56 0.48,-4.52"
       style="fill:none;stroke:#000000;stroke-width:1.12;stroke-linecap:round;stroke-linejoin:round;stroke-miterlimit:10;stroke-dasharray:none;stroke-opacity:1" /><path
       id="path377"
       d="m -622.85716,206.08392 -2.84,1.12 -1.4,0.56 -1.36,0.64 -1.32,0.64 -1.32,0.72 -1.24,0.8 -1.2,0.84 -1.2,0.92 -1.12,0.96 -1.12,1 -1.08,1.08 -2.12,2.16 -2.04,2.24"
       style="fill:none;stroke:#000000;stroke-width:1.12;stroke-linecap:round;stroke-linejoin:round;stroke-miterlimit:10;stroke-dasharray:none;stroke-opacity:1" /></g><g
     id="layer-oc4"
     inkscape:groupmode="layer"
     inkscape:label="links_thick"
     transform="matrix(0.26458334,0,0,0.26458334,220.00001,0)"><path
       id="path5"
       style="baseline-shift:baseline;display:inline;overflow:visible;vector-effect:none;stroke-linecap:round;stroke-linejoin:round;stroke-miterlimit:10;enable-background:accumulate;stop-color:#000000;stop-opacity:1;opacity:1"
       d="M -352.46289 97.623044 A 1.7 1.7 0 0 0 -354.02929 98.679685 L -359.94531 113.10547 L -363.01562 120.24414 L -366.16992 127.35156 L -367.75976 130.88867 L -369.43164 134.39257 L -371.10351 137.89453 L -372.85156 141.34961 L -374.64258 144.8125 L -376.4707 148.23242 L -378.33203 151.59765 L -380.31836 154.93359 L -382.30468 158.27148 L -384.40429 161.55859 L -386.54687 164.8125 L -388.76562 168.02148 L -391.05468 171.18164 L -391.95703 172.33593 L -391.95703 177.75 L -390.83593 176.41601 A 1.70017 1.70017 0 0 0 -390.79883 176.36914 L -388.35742 173.25 A 1.70017 1.70017 0 0 0 -388.32031 173.19921 L -386 170.00195 A 1.70017 1.70017 0 0 0 -385.97851 169.9707 L -383.73828 166.73046 A 1.70017 1.70017 0 0 0 -383.71679 166.69921 L -381.55664 163.41796 A 1.70017 1.70017 0 0 0 -381.54492 163.39843 L -379.42383 160.07812 A 1.70017 1.70017 0 0 0 -379.39648 160.0332 L -377.39648 156.67382 L -375.39648 153.3125 A 1.70017 1.70017 0 0 0 -375.36914 153.26562 L -373.49023 149.86718 A 1.70017 1.70017 0 0 0 -373.47851 149.8457 L -371.63867 146.40625 A 1.70017 1.70017 0 0 0 -371.62695 146.38476 L -369.82812 142.90429 A 1.70017 1.70017 0 0 0 -369.82031 142.89062 L -368.06054 139.41211 A 1.70017 1.70017 0 0 0 -368.04297 139.37695 L -366.36328 135.85547 L -364.68359 132.33593 A 1.70017 1.70017 0 0 0 -364.66601 132.30078 L -363.0664 128.74023 A 1.70017 1.70017 0 0 0 -363.0625 128.73437 L -359.90429 121.61328 A 1.70017 1.70017 0 0 0 -359.89648 121.5957 L -356.8164 114.43554 A 1.70017 1.70017 0 0 0 -356.80469 114.4082 L -350.88476 99.968747 A 1.7 1.7 0 0 0 -351.8125 97.749998 A 1.7 1.7 0 0 0 -352.46289 97.623044 z M -395.35937 176.51757 L -395.94726 177.21679 L -398.51367 180.13867 L -399.79687 181.5 L -401.16992 182.87304 L -402.55273 184.21484 L -403.92578 185.51171 L -405.36914 186.79687 L -406.81054 188.00585 L -408.31054 189.18945 L -409.79297 190.35937 L -411.33984 191.44335 L -412.92773 192.51562 L -414.48828 193.56835 L -416.12109 194.53906 L -419.45312 196.48437 L -422.84765 198.33984 L -426.30078 200.08593 L -429.81054 201.83984 L -436.83203 205.27148 L -443.89453 208.58398 L -444.3164 208.77929 L -444.3164 212.52343 L -442.46289 211.66406 A 1.70017 1.70017 0 0 0 -442.45507 211.6621 L -435.375 208.34179 A 1.70017 1.70017 0 0 0 -435.35156 208.33007 L -428.31054 204.88867 A 1.70017 1.70017 0 0 0 -428.29687 204.88281 L -424.77734 203.12304 A 1.70017 1.70017 0 0 0 -424.76953 203.11914 L -421.28906 201.35937 A 1.70017 1.70017 0 0 0 -421.24218 201.33398 L -417.80273 199.45312 A 1.70017 1.70017 0 0 0 -417.75976 199.42968 L -414.40039 197.4707 A 1.70017 1.70017 0 0 0 -414.38672 197.46289 L -412.70703 196.46289 A 1.70017 1.70017 0 0 0 -412.62695 196.41015 L -411.02539 195.33007 L -409.42578 194.25195 A 1.70017 1.70017 0 0 0 -409.40234 194.23437 L -407.80273 193.11523 A 1.70017 1.70017 0 0 0 -407.72461 193.05664 L -406.20312 191.85546 L -404.68359 190.65625 A 1.70017 1.70017 0 0 0 -404.64453 190.625 L -403.16601 189.38476 A 1.70017 1.70017 0 0 0 -403.125 189.35156 L -401.64648 188.03125 A 1.70017 1.70017 0 0 0 -401.61133 187.99804 L -400.21093 186.67968 A 1.70017 1.70017 0 0 0 -400.19336 186.6621 L -398.79297 185.30078 A 1.70017 1.70017 0 0 0 -398.77539 185.2832 L -397.375 183.88476 A 1.70017 1.70017 0 0 0 -397.33984 183.84765 L -396.01953 182.44726 A 1.70017 1.70017 0 0 0 -395.98047 182.40429 L -395.35937 181.69726 L -395.35937 176.51757 z M -447.71875 210.35546 L -450.95898 211.85546 L -458.05859 215.00585 L -465.19921 218.07812 L -472.38281 221.07226 L -479.5664 223.98437 L -486.7832 226.8164 L -494.08203 229.52734 L -501.38476 232.1621 L -508.73242 234.71679 L -516.07812 237.23242 L -523.46679 239.66796 L -538.30468 244.50781 A 1.7 1.7 0 0 0 -539.39257 246.65038 A 1.7 1.7 0 0 0 -537.24999 247.74023 L -522.41015 242.90038 A 1.70017 1.70017 0 0 0 -522.40429 242.89843 L -515.0039 240.45898 A 1.70017 1.70017 0 0 0 -514.98632 240.45312 L -507.62695 237.93163 A 1.70017 1.70017 0 0 0 -507.61913 237.92968 L -500.25781 235.36913 A 1.70017 1.70017 0 0 0 -500.24023 235.36328 L -492.91992 232.72265 A 1.70017 1.70017 0 0 0 -492.90429 232.71679 L -485.58593 229.99804 A 1.70017 1.70017 0 0 0 -485.55664 229.98632 L -478.3164 227.14648 A 1.70017 1.70017 0 0 0 -478.29882 227.13867 L -471.09765 224.21874 A 1.70017 1.70017 0 0 0 -471.08398 224.21288 L -463.88281 221.21289 A 1.70017 1.70017 0 0 0 -463.86523 221.20312 L -456.70507 218.12304 A 1.70017 1.70017 0 0 0 -456.6875 218.11523 L -449.56836 214.95507 A 1.70017 1.70017 0 0 0 -449.54296 214.94531 L -447.71875 214.0996 L -447.71875 210.35546 z " /><path
       id="path362"
       style="baseline-shift:baseline;display:inline;overflow:visible;vector-effect:none;stroke-linecap:round;stroke-linejoin:round;stroke-miterlimit:10;enable-background:accumulate;stop-color:#000000;stop-opacity:1;opacity:1"
       d="M -658.12108 188.66406 L -661.04101 188.70312 A 1.70017 1.70017 0 0 0 -661.06249 188.70507 L -662.43554 188.74218 L -662.43554 192.14453 L -660.98241 192.10546 L -658.08593 192.0664 L -655.16015 192.0664 L -652.23437 192.14453 L -649.29687 192.26367 L -646.35937 192.42187 L -643.43554 192.62109 L -640.54882 192.89648 L -637.62304 193.21289 L -634.73827 193.60937 L -631.85351 194.04296 L -628.96679 194.55664 L -626.08202 195.11132 L -623.24804 195.74023 L -620.40038 196.45312 L -617.55468 197.20312 L -614.75976 198.02929 L -611.97851 198.93164 L -609.27734 199.94921 L -606.57812 201.04492 L -604.02148 202.24414 L -601.47655 203.61523 L -600.23827 204.31249 L -599.0703 205.02734 L -597.9121 205.83789 L -596.73241 206.66406 L -594.43945 208.37499 L -592.26757 210.23632 L -590.15624 212.1914 L -588.12109 214.2246 L -586.12109 216.38281 L -584.19335 218.58593 L -582.34374 220.83007 L -580.52343 223.16406 L -578.74023 225.50195 L -577.04296 227.83203 L -573.69726 232.65234 L -570.3789 237.48828 A 1.7 1.7 0 0 0 -568.01562 237.92773 A 1.7 1.7 0 0 0 -567.57616 235.56445 L -570.89452 230.7246 A 1.70017 1.70017 0 0 0 -570.90038 230.71679 L -574.25976 225.87695 A 1.70017 1.70017 0 0 0 -574.2832 225.84374 L -576.0039 223.48437 A 1.70017 1.70017 0 0 0 -576.02538 223.45507 L -577.82616 221.0957 A 1.70017 1.70017 0 0 0 -577.83593 221.08007 L -579.67577 218.7207 A 1.70017 1.70017 0 0 0 -579.70507 218.68359 L -581.58593 216.40429 A 1.70017 1.70017 0 0 0 -581.61718 216.36718 L -583.57812 214.12695 A 1.70017 1.70017 0 0 0 -583.61132 214.08984 L -585.65038 211.89062 A 1.70017 1.70017 0 0 0 -585.6953 211.84374 L -587.77538 209.76367 A 1.70017 1.70017 0 0 0 -587.82226 209.71874 L -589.98241 207.71874 A 1.70017 1.70017 0 0 0 -590.03124 207.67578 L -592.27148 205.75585 A 1.70017 1.70017 0 0 0 -592.36132 205.68359 L -594.7207 203.92382 A 1.70017 1.70017 0 0 0 -594.76171 203.89257 L -595.96288 203.05273 L -597.1621 202.21289 A 1.70017 1.70017 0 0 0 -597.24804 202.15624 L -598.48827 201.39648 A 1.70017 1.70017 0 0 0 -598.54296 201.36328 L -599.82421 200.64453 A 1.70017 1.70017 0 0 0 -599.85155 200.6289 L -602.45116 199.22851 A 1.70017 1.70017 0 0 0 -602.53515 199.18749 L -605.17382 197.94726 A 1.70017 1.70017 0 0 0 -605.2578 197.91015 L -608.01757 196.79101 A 1.70017 1.70017 0 0 0 -608.05859 196.77539 L -610.81835 195.73437 A 1.70017 1.70017 0 0 0 -610.89257 195.70898 L -613.73241 194.78906 A 1.70017 1.70017 0 0 0 -613.77538 194.77539 L -616.61523 193.93554 A 1.70017 1.70017 0 0 0 -616.66405 193.92187 L -619.54296 193.1621 A 1.70017 1.70017 0 0 0 -619.56444 193.15429 L -622.4453 192.43554 A 1.70017 1.70017 0 0 0 -622.48827 192.42382 L -625.36913 191.78515 A 1.70017 1.70017 0 0 0 -625.41601 191.77539 L -628.33788 191.21484 A 1.70017 1.70017 0 0 0 -628.35937 191.21093 L -631.27929 190.68945 A 1.70017 1.70017 0 0 0 -631.32421 190.68359 L -634.24413 190.24218 A 1.70017 1.70017 0 0 0 -634.26562 190.24023 L -637.18554 189.83984 A 1.70017 1.70017 0 0 0 -637.23437 189.83398 L -640.1953 189.51367 A 1.70017 1.70017 0 0 0 -640.21483 189.51171 L -643.13476 189.23242 A 1.70017 1.70017 0 0 0 -643.18163 189.22851 L -646.14257 189.02734 A 1.70017 1.70017 0 0 0 -646.16601 189.02734 L -649.12499 188.86718 A 1.70017 1.70017 0 0 0 -649.14843 188.86523 L -652.10741 188.74609 A 1.70017 1.70017 0 0 0 -652.13085 188.74414 L -655.09179 188.66406 A 1.70017 1.70017 0 0 0 -655.13671 188.66406 L -658.09765 188.66406 A 1.70017 1.70017 0 0 0 -658.12108 188.66406 z M -665.83983 188.88281 L -667.02929 188.94726 L -669.98827 189.10546 A 1.70017 1.70017 0 0 0 -670.01171 189.10742 L -672.97265 189.30859 A 1.70017 1.70017 0 0 0 -673.01952 189.3125 L -675.93944 189.59179 A 1.70017 1.70017 0 0 0 -675.96093 189.59375 L -681.84179 190.23437 A 1.70017 1.70017 0 0 0 -681.87694 190.23828 L -687.71679 190.99804 A 1.70017 1.70017 0 0 0 -687.76366 191.00585 L -693.56444 191.92578 A 1.70017 1.70017 0 0 0 -693.58593 191.92773 L -699.38671 192.92773 A 1.70017 1.70017 0 0 0 -699.42186 192.93554 L -705.18163 194.05468 A 1.70017 1.70017 0 0 0 -705.21483 194.06445 L -710.9746 195.30468 A 1.70017 1.70017 0 0 0 -710.98632 195.30664 L -714.79491 196.15234 L -714.79491 199.63671 L -710.2539 198.62695 L -704.51561 197.39062 L -698.79101 196.27734 L -693.01952 195.2832 L -687.2539 194.36914 L -681.45507 193.61328 L -675.60351 192.97656 L -672.71874 192.70117 L -669.79491 192.50195 L -666.84569 192.34375 L -665.83983 192.28906 L -665.83983 188.88281 z M -718.19921 196.92187 L -722.4785 197.91015 A 1.70017 1.70017 0 0 0 -722.49804 197.91406 L -728.2578 199.31445 A 1.70017 1.70017 0 0 0 -728.26171 199.31445 L -739.70116 202.11523 A 1.7 1.7 0 0 0 -740.94921 204.16992 A 1.7 1.7 0 0 0 -738.89257 205.41796 L -727.45507 202.61718 L -721.70507 201.2207 L -718.19921 200.4121 L -718.19921 196.92187 z " /><path
       id="path363"
       d="m -568.73716,253.32392 -9.88,1.56 -4.92,0.8 -4.92,0.92 -4.92,1 -4.92,1.12 -4.88,1.28 -2.44,0.68 -2.4,0.72 -2.44,0.8 -2.4,0.84 -2.36,0.92 -2.36,1 -2.24,1.08 -2.2,1.2 -2.12,1.32 -1,0.72 -1,0.72 -0.96,0.76 -0.96,0.84 -1.8,1.68 -1.72,1.8 -1.64,1.88 -1.6,1.96 -1.56,2 -3.04,4.12"
       style="fill:none;stroke:#000000;stroke-width:3.4;stroke-linecap:round;stroke-linejoin:round;stroke-miterlimit:10;stroke-dasharray:none;stroke-opacity:1" /><path
       id="path364"
       style="baseline-shift:baseline;display:inline;overflow:visible;vector-effect:none;stroke-linecap:round;stroke-linejoin:round;stroke-miterlimit:10;enable-background:accumulate;stop-color:#000000;stop-opacity:1;opacity:1"
       d="M -651.72265 303.74413 A 1.7 1.7 0 0 0 -652.75194 304.10937 L -662.11132 311.50976 A 1.70017 1.70017 0 0 0 -662.12108 311.51757 L -662.43554 311.76952 L -662.43554 316.12695 L -659.99999 314.17382 L -650.64452 306.77734 A 1.7 1.7 0 0 0 -650.36523 304.38866 A 1.7 1.7 0 0 0 -651.49999 303.75585 L -651.50194 303.75585 A 1.7 1.7 0 0 0 -651.72265 303.74413 z M -665.83983 314.49999 L -666.75976 315.23827 A 1.70017 1.70017 0 0 0 -666.77343 315.24804 L -671.37304 319.0078 A 1.70017 1.70017 0 0 0 -671.38476 319.01757 L -675.9453 322.81835 A 1.70017 1.70017 0 0 0 -675.96483 322.83398 L -680.48436 326.71484 A 1.70017 1.70017 0 0 0 -680.49608 326.7246 L -684.97655 330.64452 A 1.70017 1.70017 0 0 0 -684.99413 330.66015 L -689.39452 334.62109 A 1.70017 1.70017 0 0 0 -689.42382 334.64843 L -693.74413 338.72851 A 1.70017 1.70017 0 0 0 -693.77343 338.75585 L -697.97265 342.91601 A 1.70017 1.70017 0 0 0 -697.99022 342.93359 L -702.15038 347.17382 A 1.70017 1.70017 0 0 0 -702.17382 347.19726 L -706.2539 351.51757 A 1.70017 1.70017 0 0 0 -706.28515 351.55273 L -710.24608 355.99218 A 1.70017 1.70017 0 0 0 -710.26757 356.01757 L -714.14647 360.5371 A 1.70017 1.70017 0 0 0 -714.16405 360.55468 L -714.79491 361.31249 L -714.79491 366.62304 L -711.56054 362.74218 L -707.69921 358.24413 L -703.76561 353.83398 L -699.71483 349.54296 L -695.57421 345.32226 L -691.39647 341.18554 L -687.10741 337.13476 L -682.73046 333.1953 L -678.26561 329.28905 L -673.76171 325.42187 L -669.21679 321.63476 L -665.83983 318.87499 L -665.83983 314.49999 z M -718.19921 365.4121 L -721.70702 369.82616 A 1.70017 1.70017 0 0 0 -721.73241 369.85937 L -725.33397 374.61913 A 1.70017 1.70017 0 0 0 -725.35155 374.64452 L -728.87108 379.48437 A 1.70017 1.70017 0 0 0 -728.89647 379.51757 L -732.29491 384.43749 A 1.70017 1.70017 0 0 0 -732.31249 384.46093 L -733.99218 386.98046 A 1.70017 1.70017 0 0 0 -734.01171 387.01366 L -735.61327 389.53319 A 1.70017 1.70017 0 0 0 -735.62304 389.54882 L -737.18163 392.06835 A 1.70017 1.70017 0 0 0 -737.20507 392.10546 L -738.7246 394.70507 A 1.70017 1.70017 0 0 0 -738.7285 394.71288 L -740.20897 397.27343 A 1.70017 1.70017 0 0 0 -740.23827 397.32811 L -741.63866 399.96679 A 1.70017 1.70017 0 0 0 -741.64843 399.98632 L -743.0078 402.62499 A 1.70017 1.70017 0 0 0 -743.01952 402.64452 L -744.33983 405.28319 A 1.70017 1.70017 0 0 0 -744.36522 405.33788 L -745.60546 408.05858 A 1.70017 1.70017 0 0 0 -745.62304 408.09765 L -746.78319 410.8164 A 1.70017 1.70017 0 0 0 -746.791 410.83593 L -747.91014 413.55663 A 1.70017 1.70017 0 0 0 -747.93749 413.62499 L -748.93749 416.38476 A 1.70017 1.70017 0 0 0 -748.94725 416.4121 L -749.90624 419.21288 A 1.70017 1.70017 0 0 0 -749.916 419.24022 L -750.83593 422.08007 A 1.70017 1.70017 0 0 0 -750.84764 422.11522 L -751.68749 424.916 A 1.70017 1.70017 0 0 0 -751.69725 424.94921 L -752.49803 427.82811 A 1.70017 1.70017 0 0 0 -752.5078 427.87108 L -753.2285 430.75194 L -753.94921 433.63085 A 1.70017 1.70017 0 0 0 -753.95897 433.67772 L -755.23827 439.4785 A 1.70017 1.70017 0 0 0 -755.24608 439.51561 L -756.40624 445.39452 A 1.70017 1.70017 0 0 0 -756.4121 445.416 L -757.49022 451.29686 A 1.70017 1.70017 0 0 0 -757.49413 451.31054 L -758.53319 457.23046 A 1.7 1.7 0 0 0 -757.15233 459.19921 A 1.7 1.7 0 0 0 -755.18553 457.81835 L -754.14647 451.90429 L -753.06835 446.04296 L -751.91405 440.1914 L -750.64452 434.43358 L -749.92968 431.57616 L -749.21483 428.71679 L -748.42577 425.87499 L -747.59569 423.10936 L -746.68554 420.30077 L -745.73632 417.52929 L -744.75389 414.81835 L -743.65038 412.14061 L -742.50389 409.44921 L -741.28514 406.77733 L -739.98241 404.17382 L -738.6328 401.55077 L -737.25194 398.94726 L -735.78905 396.41796 L -734.28319 393.83983 L -732.73827 391.34765 L -731.15429 388.85155 L -729.49218 386.35937 L -726.11132 381.46679 L -722.61327 376.65624 L -719.03515 371.92577 L -718.19921 370.87499 L -718.19921 365.4121 z " /><path
       id="path374"
       d="m -550.77716,253.84392 8.08,7.32 4.08,3.64 4.12,3.6 4.16,3.52 4.24,3.44 4.36,3.4 2.2,1.64 2.24,1.6 2.28,1.6 2.32,1.52 2.32,1.48 2.4,1.36 2.4,1.28 2.48,1.2 2.48,1.04 2.56,0.92 2.6,0.8 2.64,0.64 2.68,0.52 2.68,0.48 2.72,0.36 2.76,0.32 5.48,0.6"
       style="fill:none;stroke:#000000;stroke-width:3.4;stroke-linecap:round;stroke-linejoin:round;stroke-miterlimit:10;stroke-dasharray:none;stroke-opacity:1" /><path
       id="path703"
       d="m -636.37716,309.00392 6.36,17.08 6.36,17.04 3.12,8.56 3.04,8.56 2.96,8.64 1.4,4.32 1.4,4.32 1.32,4.36 1.24,4.4 1.16,4.4 1,4.44 0.88,4.48 0.4,2.24 0.36,2.28 0.28,2.24 0.28,2.28 0.2,2.28 0.16,2.28 0.12,2.28 0.08,2.28 0.04,2.28 -0.04,2.28 -0.08,2.32 -0.16,2.28 -0.2,2.28 -0.24,2.28 -0.32,2.28 -0.4,2.28 -0.44,2.28 -0.52,2.28 -0.56,2.24 -0.64,2.24 -0.68,2.24 -0.76,2.2 -0.84,2.16 -0.88,2.16 -0.96,2.08 -1,2.08 -1.08,2.04 -1.16,2 -1.2,1.92 -1.28,1.92 -1.32,1.84 -1.4,1.76 -1.48,1.76 -1.52,1.64 -1.56,1.64 -1.64,1.56 -1.68,1.48 -1.76,1.48 -1.76,1.4 -1.84,1.4 -1.84,1.32 -1.88,1.32 -3.84,2.56 -3.88,2.48 -7.84,4.84 -7.84,4.76 -7.8,4.68 -3.92,2.28 -3.96,2.24 -3.96,2.16 -4,2.12 -4.04,2.08 -4.08,1.96 -4.12,1.96 -4.12,1.84 -4.2,1.84 -4.16,1.8 -8.44,3.48 -8.48,3.44"
       style="fill:none;stroke:#000000;stroke-width:3.4;stroke-linecap:round;stroke-linejoin:round;stroke-miterlimit:10;stroke-dasharray:none;stroke-opacity:1" /></g><g
     id="layer-oc6"
     inkscape:groupmode="layer"
     inkscape:label="red_node"
     transform="matrix(0.26458334,0,0,0.26458334,220.00001,0)"><path
       id="path378"
       style="fill:#ff0000;fill-opacity:1;fill-rule:nonzero;stroke:#ff0000;stroke-width:0.04;stroke-linecap:round;stroke-linejoin:miter;stroke-miterlimit:10;stroke-dasharray:none;stroke-opacity:1"
       d="m -344.33795,63.443036 -0.55859,0.041 -1.20117,0.0801 -0.71875,0.11916 -1,0.12108 -0.80078,0.1992 -0.91993,0.24024 -0.75976,0.27932 -0.91992,0.28124 -0.75977,0.35936 -0.83984,0.3594 -0.72071,0.4414 -0.80078,0.43944 -0.71875,0.48048 -0.75976,0.51952 -0.64063,0.51952 -0.7207,0.59964 -0.59961,0.60156 -0.64062,0.5996 -0.5586,0.67968 -0.59961,0.67968 -0.52148,0.72072 -0.51953,0.71876 -0.43946,0.76172 -0.4414,0.75976 -0.35938,0.75976 -0.40039,0.83984 -0.2793,0.79884 -0.32031,0.8418 -0.24023,0.83984 -0.24024,0.83984 -0.16015,0.87888 -0.11914,0.88088 -0.0801,0.87892 -0.0801,0.88084 v 0.87892 0.88084 l 0.0801,0.88088 0.0801,0.87888 0.11914,0.88088 0.16015,0.83984 0.24024,0.87892 0.24023,0.83984 0.32031,0.8418 0.2793,0.7988 0.40039,0.8008 0.35938,0.79884 0.4414,0.75976 0.43946,0.76172 0.51953,0.71872 0.52148,0.72072 0.59961,0.67968 0.5586,0.64064 0.64062,0.63868 0.59961,0.60156 0.7207,0.55856 0.64063,0.56056 0.75976,0.51952 0.71875,0.480484 0.80078,0.43944 0.72071,0.4004 0.83984,0.4004 0.75977,0.32032 0.91992,0.32032 0.75976,0.27928 0.91993,0.19924 0.80078,0.20116 1,0.16016 0.71875,0.11912 1.20117,0.0801 0.55859,0.041 1.76172,-0.041 0.71875,-0.0801 1.04102,-0.11912 0.75976,-0.16016 0.95899,-0.20116 0.80078,-0.19924 0.91992,-0.27928 0.75977,-0.32032 0.88086,-0.32032 0.75976,-0.4004 0.79883,-0.4004 0.7207,-0.43944 0.80078,-0.480484 0.67969,-0.51952 0.71875,-0.56056 0.64063,-0.55856 0.67968,-0.60156 0.59961,-0.63868 0.60157,-0.64064 0.51952,-0.67968 0.56055,-0.72072 0.47852,-0.71872 0.48047,-0.76172 0.40039,-0.75976 0.43945,-0.79884 0.32031,-0.8008 0.35938,-0.7988 0.24023,-0.8418 0.28125,-0.83984 0.19922,-0.87892 0.19922,-0.83984 0.12109,-0.88088 0.11914,-0.87888 0.041,-0.88088 0.0391,-0.88084 -0.0391,-0.87892 -0.041,-0.88084 -0.11914,-0.87892 -0.12109,-0.88088 -0.19922,-0.87888 -0.19922,-0.83984 -0.28125,-0.83984 -0.24023,-0.8418 -0.35938,-0.79884 -0.32031,-0.83984 -0.43945,-0.75976 -0.40039,-0.75976 -0.48047,-0.76172 -0.47852,-0.71876 -0.56055,-0.72072 -0.51952,-0.67968 -0.60157,-0.67968 -0.59961,-0.5996 -0.67968,-0.60156 -0.64063,-0.59964 -0.71875,-0.51952 -0.67969,-0.51952 -0.80078,-0.48048 -0.7207,-0.43944 -0.79883,-0.4414 -0.75976,-0.3594 -0.88086,-0.35936 -0.75977,-0.28124 -0.91992,-0.27932 -0.80078,-0.24024 -0.95899,-0.1992 -0.75976,-0.12108 -1.04102,-0.11916 -0.71875,-0.0801 z m -274.55857,114.320284 -1.56056,0.16016 -1.51952,0.32032 -1.48048,0.43944 -1.4004,0.64064 -1.35936,0.75976 -1.28124,0.88088 -1.19924,1 -1.08008,1.11912 -0.91992,1.24024 -0.83984,1.32032 -0.67968,1.4004 -0.51952,1.43944 -0.4004,1.51952 -0.24024,1.51956 -0.0801,1.56052 0.0801,1.56056 0.24024,1.51952 0.4004,1.51952 0.51952,1.44144 0.67968,1.39844 0.83984,1.32028 0.91992,1.24024 1.08008,1.12112 1.19924,1 1.28124,0.87888 1.35936,0.75976 1.4004,0.64064 1.48048,0.43944 1.51952,0.32032 1.56056,0.16016 h 1.55856 l 1.56056,-0.16016 1.51952,-0.32032 1.48048,-0.43944 1.4004,-0.64064 1.35936,-0.75976 1.28128,-0.87888 1.1992,-1 1.03908,-1.12112 0.96092,-1.24024 0.83984,-1.32028 0.67968,-1.39844 0.51956,-1.44144 0.40036,-1.51952 0.24024,-1.51952 0.0801,-1.56056 -0.0801,-1.56052 -0.24024,-1.51956 -0.40036,-1.51952 -0.51956,-1.43944 -0.67968,-1.4004 -0.83984,-1.32032 -0.96092,-1.24024 -1.03908,-1.11912 -1.1992,-1 -1.28128,-0.88088 -1.35936,-0.75976 -1.4004,-0.64064 -1.48048,-0.43944 -1.51952,-0.32032 -1.56056,-0.16016 z m -23.24024,103.52148 -1.56056,0.15824 -1.51952,0.32028 -1.48048,0.44144 -1.4004,0.63864 -1.35936,0.75976 -1.27928,0.88088 -1.2012,1 -1.08008,1.11912 -0.91992,1.24024 -0.83984,1.32032 -0.67968,1.4004 -0.56056,1.43944 -0.35936,1.51956 -0.24024,1.52148 -0.0801,1.55856 0.0801,1.56056 0.24024,1.51952 0.35936,1.52152 0.56056,1.43944 0.67968,1.4004 0.83984,1.31836 0.91992,1.2402 1.08008,1.12112 1.2012,1 1.27928,0.91992 1.35936,0.71876 1.4004,0.6406 1.48048,0.43948 1.51952,0.32028 1.56056,0.16016 h 1.56052 l 1.51956,-0.16016 1.5586,-0.32028 1.48044,-0.43948 1.4004,-0.6406 1.35936,-0.71876 1.28128,-0.91992 1.1992,-1 1.04104,-1.12112 0.95896,-1.2402 0.83984,-1.31836 0.67968,-1.4004 0.52152,-1.43944 0.3984,-1.52152 0.24024,-1.51952 0.0801,-1.56056 -0.0801,-1.55856 -0.24024,-1.52148 -0.3984,-1.51956 -0.52152,-1.43944 -0.67968,-1.4004 -0.83984,-1.32032 -0.95896,-1.24024 -1.04104,-1.11912 -1.1992,-1 -1.28128,-0.88088 -1.35936,-0.75976 -1.4004,-0.63864 -1.48044,-0.44144 -1.5586,-0.32028 -1.51956,-0.15824 z m -116,173.2383 -1.28124,0.0801 -1.27932,0.24023 -1.24024,0.36133 -1.1992,0.51953 -1.08008,0.67969 -1.041,0.80078 -0.91996,0.91992 -0.7988,1 -0.64064,1.11914 -0.56056,1.19922 -0.35936,1.24023 -0.24024,1.24024 -0.0801,1.32031 0.0801,1.2793 0.24024,1.28125 0.35936,1.24023 0.56056,1.16016 0.64064,1.11914 0.7988,1 0.91996,0.91992 1.041,0.80078 1.08008,0.67969 1.1992,0.51953 1.24024,0.40039 1.27932,0.24023 1.28124,0.0801 1.27928,-0.0801 1.28128,-0.24023 1.23828,-0.40039 1.16012,-0.51953 1.12112,-0.67969 1,-0.80078 0.91992,-0.91992 0.79884,-1 0.68164,-1.11914 0.51952,-1.16016 0.4004,-1.24023 0.23828,-1.28125 0.0801,-1.2793 -0.0801,-1.32031 -0.23828,-1.24024 -0.4004,-1.24023 -0.51952,-1.19922 -0.68164,-1.11914 -0.79884,-1 -0.91992,-0.91992 -1,-0.80078 -1.12112,-0.67969 -1.16012,-0.51953 -1.23828,-0.36133 -1.28128,-0.24023 z" /></g><g
     id="layer-oc7"
     inkscape:groupmode="layer"
     inkscape:label="blue_nodel"
     transform="matrix(0.26458334,0,0,0.26458334,220.00001,0)"><path
       id="path434"
       style="fill:#0070c0;fill-opacity:1;fill-rule:nonzero;stroke:#0070c0;stroke-width:0.04;stroke-linecap:round;stroke-linejoin:miter;stroke-miterlimit:10;stroke-dasharray:none;stroke-opacity:1"
       d="m -747.9766,198.16372 -1.28124,0.16016 -1.24024,0.27932 -1.19924,0.4414 -1.11912,0.5586 -1.08008,0.72068 -0.96096,0.83984 -0.87888,0.91992 -0.76172,1 -0.63868,1.12112 -0.51952,1.1582 -0.36136,1.24024 -0.2402,1.2402 -0.0801,1.28128 0.0801,1.27928 0.2402,1.24024 0.36136,1.24024 0.51952,1.16016 0.63868,1.11912 0.76172,1 0.87888,0.96096 0.96096,0.7988 1.08008,0.72072 1.11912,0.56056 1.19924,0.43944 1.24024,0.27928 1.28124,0.16016 h 1.27928 l 1.24024,-0.16016 1.27928,-0.27928 1.2012,-0.43944 1.11912,-0.56056 1.08008,-0.72072 0.96096,-0.7988 0.87888,-0.96096 0.75976,-1 0.64064,-1.11912 0.51952,-1.16016 0.36136,-1.24024 0.1992,-1.24024 0.0801,-1.27928 -0.0801,-1.28128 -0.1992,-1.2402 -0.36136,-1.24024 -0.51952,-1.1582 -0.64064,-1.12112 -0.75976,-1 -0.87888,-0.91992 -0.96096,-0.83984 -1.08008,-0.72068 -1.11912,-0.5586 -1.2012,-0.4414 -1.27928,-0.27932 -1.24024,-0.16016 z m 272.27928,83.16016 -1.48048,0.16016 -1.43944,0.27928 -1.43944,0.44144 -1.36136,0.5996 -1.31836,0.71876 -1.20116,0.88084 -1.16016,0.959 -1,1.08008 -0.91992,1.16012 -0.7988,1.28128 -0.64064,1.32032 -0.51952,1.3984 -0.4004,1.44144 -0.19924,1.47852 -0.0801,1.52148 0.0801,1.47852 0.19924,1.48044 0.4004,1.43948 0.51952,1.40036 0.64064,1.32032 0.7988,1.27932 0.91992,1.16012 1,1.08008 1.16016,1 1.20116,0.83988 1.31836,0.72068 1.36136,0.5996 1.43944,0.4414 1.43944,0.27932 1.48048,0.16016 h 1.51952 l 1.48048,-0.16016 1.43944,-0.27932 1.4414,-0.4414 1.3594,-0.5996 1.32032,-0.72068 1.1992,-0.83988 1.16016,-1 1,-1.08008 0.91992,-1.16012 0.8008,-1.27932 0.63864,-1.32032 0.52152,-1.40036 0.3984,-1.43948 0.2012,-1.48044 0.0801,-1.47852 -0.0801,-1.52148 -0.2012,-1.47852 -0.3984,-1.44144 -0.52152,-1.3984 -0.63864,-1.32032 -0.8008,-1.28128 -0.91992,-1.16012 -1,-1.08008 -1.16016,-0.959 -1.1992,-0.88084 -1.32032,-0.71876 -1.3594,-0.5996 -1.4414,-0.44144 -1.43944,-0.27928 -1.48048,-0.16016 z m -106.80076,29.83984 -1.27932,0.16016 -1.24024,0.27928 -1.1992,0.44144 -1.12112,0.55856 -1.08004,0.72072 -1,0.8008 -0.83988,0.95896 -0.75976,1 -0.63868,1.1211 -0.52148,1.1582 -0.35936,1.24024 -0.24024,1.24023 -0.0801,1.28125 0.0801,1.2793 0.24024,1.24023 0.35936,1.24024 0.52148,1.16015 0.63868,1.11914 0.75976,1 0.83988,0.96094 1,0.79883 1.08004,0.7207 1.12112,0.56055 1.1992,0.43945 1.24024,0.2793 1.27932,0.16016 h 1.28124 l 1.24024,-0.16016 1.24024,-0.2793 1.1992,-0.43945 1.16016,-0.56055 1.08008,-0.7207 0.95896,-0.79883 0.88088,-0.96094 0.75976,-1 0.64064,-1.11914 0.51952,-1.16015 0.35936,-1.24024 0.2012,-1.24023 0.0801,-1.2793 -0.0801,-1.28125 -0.2012,-1.24023 -0.35936,-1.24024 -0.51952,-1.1582 -0.64064,-1.1211 -0.75976,-1 -0.88088,-0.95896 -0.95896,-0.8008 -1.08008,-0.72072 -1.16016,-0.55856 -1.1992,-0.44144 -1.24024,-0.27928 -1.24024,-0.16016 z m -156,206.67969 -1.71876,0.0801 -1.67968,0.20118 -1.64064,0.39844 -1.64064,0.56054 -1.55856,0.67969 -1.48048,0.83984 -1.4004,0.96094 -1.32032,1.08008 -1.1992,1.19922 -1.08008,1.32031 -0.96096,1.40039 -0.83984,1.48047 -0.67968,1.55859 -0.56052,1.60157 -0.3594,1.67968 -0.24024,1.67969 -0.0801,1.67969 0.0801,1.7207 0.24024,1.67969 0.3594,1.67969 0.56052,1.5996 0.67968,1.56055 0.83984,1.48047 0.96096,1.40039 1.08008,1.31836 1.1992,1.20117 1.32032,1.08008 1.4004,0.95898 1.48048,0.83985 1.55856,0.67969 1.64064,0.56054 1.64064,0.40039 1.67968,0.19922 1.71876,0.0801 1.68164,-0.0801 1.71872,-0.19922 1.64064,-0.40039 1.5996,-0.56054 1.56056,-0.67969 1.48048,-0.83985 1.43944,-0.95898 1.27928,-1.08008 1.2012,-1.20117 1.11912,-1.31836 0.96096,-1.40039 0.7988,-1.48047 0.72072,-1.56055 0.51952,-1.5996 0.4004,-1.67969 0.24024,-1.67969 0.0801,-1.7207 -0.0801,-1.67969 -0.24024,-1.67969 -0.4004,-1.67968 -0.51952,-1.60157 -0.72072,-1.55859 -0.7988,-1.48047 -0.96096,-1.40039 -1.11912,-1.32031 -1.2012,-1.19922 -1.27928,-1.08008 -1.43944,-0.96094 -1.48048,-0.83984 -1.56056,-0.67969 -1.5996,-0.56054 -1.64064,-0.39844 -1.71872,-0.20118 z" /></g><g
     id="layer-oc8"
     inkscape:groupmode="layer"
     inkscape:label="yellow_node"
     transform="matrix(0.26458334,0,0,0.26458334,220.00001,0)"><path
       id="path516"
       style="fill:#ffc000;fill-opacity:1;fill-rule:nonzero;stroke:#ffc000;stroke-width:0.04;stroke-linecap:round;stroke-linejoin:miter;stroke-miterlimit:10;stroke-dasharray:none;stroke-opacity:1"
       d="m -503.05668,169.92348 -1.24024,0.0801 -1.2012,0.2012 -1.1992,0.35936 -1.11912,0.51952 -1.08008,0.64064 -0.96096,0.75976 -0.87892,0.87892 -0.76168,1 -0.63868,1.041 -0.51956,1.11916 -0.36132,1.20116 -0.1992,1.1992 -0.0801,1.24024 0.0801,1.24024 0.1992,1.24024 0.36132,1.16016 0.51956,1.11912 0.63868,1.08008 0.76168,0.96096 0.87892,0.87888 0.96096,0.7598 1.08008,0.6406 1.11912,0.51952 1.1992,0.36136 1.2012,0.23828 1.24024,0.041 1.24024,-0.041 1.1992,-0.23828 1.1992,-0.36136 1.12112,-0.51952 1.08008,-0.6406 0.95896,-0.7598 0.88088,-0.87888 0.75976,-0.96096 0.64064,-1.08008 0.51952,-1.11912 0.35936,-1.16016 0.24024,-1.24024 0.041,-1.24024 -0.041,-1.24024 -0.24024,-1.1992 -0.35936,-1.20116 -0.51952,-1.11916 -0.64064,-1.041 -0.75976,-1 -0.88088,-0.87892 -0.95896,-0.75976 -1.08008,-0.64064 -1.12112,-0.51952 -1.1992,-0.35936 -1.1992,-0.2012 z m 128.24022,13.56056 -1.20118,0.0801 -1.24023,0.24024 -1.16015,0.35936 -1.15821,0.51952 -1.04101,0.64064 -1,0.75976 -0.83985,0.88088 -0.80078,0.95896 -0.63867,1.04104 -0.48047,1.16016 -0.35937,1.16016 -0.24024,1.23828 -0.0801,1.2402 0.0801,1.24024 0.24024,1.2012 0.35937,1.1992 0.48047,1.11916 0.63867,1.041 0.80078,1 0.83985,0.83984 1,0.8008 1.04101,0.63864 1.15821,0.48048 1.16015,0.4004 1.24023,0.1992 1.20118,0.0801 1.24023,-0.0801 1.23828,-0.1992 1.16016,-0.4004 1.16015,-0.48048 1.04102,-0.63864 0.95898,-0.8008 0.88086,-0.83984 0.75977,-1 0.64063,-1.041 0.51953,-1.11916 0.35937,-1.1992 0.24024,-1.2012 0.0801,-1.24024 -0.0801,-1.2402 -0.24024,-1.23828 -0.35937,-1.16016 -0.51953,-1.16016 -0.64063,-1.04104 -0.75977,-0.95896 -0.88086,-0.88088 -0.95898,-0.75976 -1.04102,-0.64064 -1.16015,-0.51952 -1.16016,-0.35936 -1.23828,-0.24024 z m -269.68162,33.75976 -1.23828,0.0801 -1.2012,0.24024 -1.1992,0.35936 -1.12112,0.51956 -1.08008,0.6406 -0.95896,0.75976 -0.88088,0.88088 -0.75976,0.95896 -0.63868,1.08008 -0.52148,1.12112 -0.35936,1.16016 -0.24024,1.24024 -0.039,1.23828 0.039,1.2402 0.24024,1.2012 0.35936,1.1992 0.52148,1.12112 0.63868,1.03904 0.75976,1 0.88088,0.88088 0.95896,0.75976 1.08008,0.63868 1.12112,0.48044 1.1992,0.4004 1.2012,0.1992 1.23828,0.0801 1.2402,-0.0801 1.2012,-0.1992 1.1992,-0.4004 1.12112,-0.48044 1.08008,-0.63868 0.95896,-0.75976 0.88088,-0.88088 0.75976,-1 0.63868,-1.03904 0.52148,-1.12112 0.35936,-1.1992 0.1992,-1.2012 0.0801,-1.2402 -0.0801,-1.23828 -0.1992,-1.24024 -0.35936,-1.16016 -0.52148,-1.12112 -0.63868,-1.08008 -0.75976,-0.95896 -0.88088,-0.88088 -0.95896,-0.75976 -1.08008,-0.6406 -1.12112,-0.51956 -1.1992,-0.35936 -1.2012,-0.24024 z m 34.60156,152.43946 -1.24024,0.041 -1.2012,0.24023 -1.1992,0.35938 -1.11916,0.51953 -1.041,0.64063 -1,0.75976 -0.87892,0.88086 -0.76172,0.95898 -0.63864,1.08008 -0.48048,1.1211 -0.4004,1.19922 -0.1992,1.19922 -0.0801,1.24023 0.0801,1.24023 0.1992,1.20118 0.4004,1.19921 0.48048,1.11915 0.63864,1.08007 0.76172,0.96094 0.87892,0.87891 1,0.76172 1.041,0.63867 1.11916,0.51953 1.1992,0.36133 1.2012,0.19921 1.24024,0.0801 1.2402,-0.0801 1.23832,-0.19921 1.16012,-0.36133 1.12112,-0.51953 1.08008,-0.63867 0.95896,-0.76172 0.88088,-0.87891 0.75976,-0.96094 0.64064,-1.08007 0.51952,-1.11915 0.35936,-1.19921 0.24024,-1.20118 0.0801,-1.24023 -0.0801,-1.24023 -0.24024,-1.19922 -0.35936,-1.19922 -0.51952,-1.1211 -0.64064,-1.08008 -0.75976,-0.95898 -0.88088,-0.88086 -0.95896,-0.75976 -1.08008,-0.64063 -1.12112,-0.51953 -1.16012,-0.35938 -1.23832,-0.24023 z" /></g><g
     id="layer-oc9"
     inkscape:groupmode="layer"
     inkscape:label="node_white"
     transform="matrix(0.26458334,0,0,0.26458334,220.00001,0)"><path
       id="path594"
       style="fill:#ffffff;fill-opacity:1;fill-rule:nonzero;stroke:#ffffff;stroke-width:0.04;stroke-linecap:round;stroke-linejoin:miter;stroke-miterlimit:10;stroke-dasharray:none;stroke-opacity:1"
       d="m -555.09772,231.44304 -1.75976,0.0801 -1.75976,0.2402 -1.72072,0.36136 -1.67968,0.51952 -1.63868,0.67968 -1.56052,0.83984 -1.48048,0.96096 -1.4004,1.03904 -1.32032,1.19924 -1.1992,1.32028 -1.08008,1.4004 -0.959,1.48048 -0.80076,1.5996 -0.67968,1.5996 -0.51956,1.72072 -0.40036,1.72072 -0.2012,1.75976 -0.0801,1.75976 0.0801,1.75976 0.2012,1.75976 0.40036,1.72072 0.51956,1.67968 0.67968,1.64064 0.80076,1.55856 0.959,1.51956 1.08008,1.40036 1.1992,1.28128 1.32032,1.1992 1.4004,1.08008 1.48048,0.96092 1.56052,0.79884 1.63868,0.67968 1.67968,0.52148 1.72072,0.39844 1.75976,0.24024 1.75976,0.0801 1.8008,-0.0801 1.75976,-0.24024 1.72072,-0.39844 1.67968,-0.52148 1.63868,-0.67968 1.56052,-0.79884 1.48048,-0.96092 1.4004,-1.08008 1.32028,-1.1992 1.19924,-1.28128 1.08008,-1.40036 0.91992,-1.51956 0.83984,-1.55856 0.67968,-1.64064 0.51956,-1.67968 0.40036,-1.72072 0.2012,-1.75976 0.0801,-1.75976 -0.0801,-1.75976 -0.2012,-1.75976 -0.40036,-1.72072 -0.51956,-1.72072 -0.67968,-1.5996 -0.83984,-1.5996 -0.91992,-1.48048 -1.08008,-1.4004 -1.19924,-1.32028 -1.32028,-1.19924 -1.4004,-1.03904 -1.48048,-0.96096 -1.56052,-0.83984 -1.63868,-0.67968 -1.67968,-0.51952 -1.72072,-0.36136 -1.75976,-0.2402 z" /></g></svg>
