<?xml version="1.0" encoding="UTF-8" standalone="no"?>
<!-- Created with Inkscape (http://www.inkscape.org/) -->

<svg
   width="139mm"
   height="159mm"
   viewBox="0 0 139 159"
   version="1.1"
   id="svg1"
   xml:space="preserve"
   inkscape:version="1.4.2 (f4327f4, 2025-05-13)"
   sodipodi:docname="02_Logo_signature_svg.svg"
   xmlns:inkscape="http://www.inkscape.org/namespaces/inkscape"
   xmlns:sodipodi="http://sodipodi.sourceforge.net/DTD/sodipodi-0.dtd"
   xmlns="http://www.w3.org/2000/svg"
   xmlns:svg="http://www.w3.org/2000/svg"><sodipodi:namedview
     id="namedview1"
     pagecolor="#ffffff"
     bordercolor="#000000"
     borderopacity="0.25"
     inkscape:showpageshadow="2"
     inkscape:pageopacity="0.0"
     inkscape:pagecheckerboard="0"
     inkscape:deskcolor="#d1d1d1"
     inkscape:document-units="mm"
     inkscape:zoom="1"
     inkscape:cx="162.5"
     inkscape:cy="335.5"
     inkscape:window-width="1920"
     inkscape:window-height="1111"
     inkscape:window-x="-9"
     inkscape:window-y="-9"
     inkscape:window-maximized="1"
     inkscape:current-layer="layer-oc2"><inkscape:page
       x="0"
       y="0"
       width="139"
       height="159"
       id="page1"
       margin="0"
       bleed="0"
       inkscape:export-filename="02_Logo_signature_png.png"
       inkscape:export-xdpi="300"
       inkscape:export-ydpi="300" /><inkscape:page
       x="220"
       y="0"
       width="297.03891"
       height="209.90279"
       id="page2"
       margin="0"
       bleed="0" /></sodipodi:namedview><defs
     id="defs1"><clipPath
       clipPathUnits="userSpaceOnUse"
       id="clipPath2"><path
         d="M 0,97 H 18896 V 24849 H 0 V 97"
         transform="translate(8.3333336e-5,8.3333334e-4)"
         id="path2" /></clipPath><clipPath
       clipPathUnits="userSpaceOnUse"
       id="clipPath7"><path
         d="M 0,97 H 18896 V 24849 H 0 V 97"
         transform="translate(8.3333336e-5,8.3333334e-4)"
         id="path7" /></clipPath><clipPath
       clipPathUnits="userSpaceOnUse"
       id="clipPath794"><path
         d="M 0,97 H 18896 V 24849 H 0 V 97"
         transform="matrix(0,-1,-1,0,10923,6261.9999)"
         id="path794" /></clipPath><clipPath
       clipPathUnits="userSpaceOnUse"
       id="clipPath795"><path
         d="M 0,97 H 18896 V 24849 H 0 V 97"
         transform="matrix(0,-1,-1,0,9410.9999,6261.9999)"
         id="path795" /></clipPath><clipPath
       clipPathUnits="userSpaceOnUse"
       id="clipPath796"><path
         d="M 0,97 H 18896 V 24849 H 0 V 97"
         transform="matrix(0,-1,-1,0,8752.9999,6261.9999)"
         id="path796" /></clipPath><clipPath
       clipPathUnits="userSpaceOnUse"
       id="clipPath797"><path
         d="M 0,97 H 18896 V 24849 H 0 V 97"
         transform="matrix(0,-1,-1,0,18614,2765.9999)"
         id="path797" /></clipPath><clipPath
       clipPathUnits="userSpaceOnUse"
       id="clipPath798"><path
         d="M 0,97 H 18896 V 24849 H 0 V 97"
         transform="matrix(0,-1,-1,0,17660,2765.9999)"
         id="path798" /></clipPath><clipPath
       clipPathUnits="userSpaceOnUse"
       id="clipPath799"><path
         d="M 0,97 H 18896 V 24849 H 0 V 97"
         transform="matrix(0,-1,-1,0,14209,2765.9999)"
         id="path799" /></clipPath><clipPath
       clipPathUnits="userSpaceOnUse"
       id="clipPath800"><path
         d="M 0,97 H 18896 V 24849 H 0 V 97"
         transform="matrix(0,-1,-1,0,13832,2765.9999)"
         id="path800" /></clipPath><clipPath
       clipPathUnits="userSpaceOnUse"
       id="clipPath801"><path
         d="M 0,97 H 18896 V 24849 H 0 V 97"
         transform="matrix(0,-1,-1,0,12535,1370.9999)"
         id="path801" /></clipPath><clipPath
       clipPathUnits="userSpaceOnUse"
       id="clipPath802"><path
         d="M 0,97 H 18896 V 24849 H 0 V 97"
         transform="matrix(0,-1,-1,0,11580,1370.9999)"
         id="path802" /></clipPath><clipPath
       clipPathUnits="userSpaceOnUse"
       id="clipPath803"><path
         d="M 0,97 H 18896 V 24849 H 0 V 97"
         transform="matrix(0,-1,-1,0,14193,1410.9999)"
         id="path803" /></clipPath><clipPath
       clipPathUnits="userSpaceOnUse"
       id="clipPath805"><path
         d="M 0,0 H 18897 V 24850 H 0 V 0"
         transform="translate(8.3333336e-5,8.3333334e-4)"
         id="path805" /></clipPath><clipPath
       clipPathUnits="userSpaceOnUse"
       id="clipPath2-4"><path
         d="M 0,97 H 18896 V 24849 H 0 V 97"
         transform="translate(8.3333336e-5,8.3333334e-4)"
         id="path2-1" /></clipPath><clipPath
       clipPathUnits="userSpaceOnUse"
       id="clipPath794-1"><path
         d="M 0,97 H 18896 V 24849 H 0 V 97"
         transform="matrix(0,-1,-1,0,10923,6261.9999)"
         id="path794-3" /></clipPath><clipPath
       clipPathUnits="userSpaceOnUse"
       id="clipPath795-8"><path
         d="M 0,97 H 18896 V 24849 H 0 V 97"
         transform="matrix(0,-1,-1,0,9410.9999,6261.9999)"
         id="path795-7" /></clipPath><clipPath
       clipPathUnits="userSpaceOnUse"
       id="clipPath796-4"><path
         d="M 0,97 H 18896 V 24849 H 0 V 97"
         transform="matrix(0,-1,-1,0,8752.9999,6261.9999)"
         id="path796-2" /></clipPath><clipPath
       clipPathUnits="userSpaceOnUse"
       id="clipPath2-3"><path
         d="M 0,97 H 18896 V 24849 H 0 V 97"
         transform="translate(8.3333336e-5,8.3333334e-4)"
         id="path2-6" /></clipPath><clipPath
       clipPathUnits="userSpaceOnUse"
       id="clipPath794-15"><path
         d="M 0,97 H 18896 V 24849 H 0 V 97"
         transform="matrix(0,-1,-1,0,10923,6261.9999)"
         id="path794-4" /></clipPath><clipPath
       clipPathUnits="userSpaceOnUse"
       id="clipPath795-2"><path
         d="M 0,97 H 18896 V 24849 H 0 V 97"
         transform="matrix(0,-1,-1,0,9410.9999,6261.9999)"
         id="path795-0" /></clipPath><clipPath
       clipPathUnits="userSpaceOnUse"
       id="clipPath796-9"><path
         d="M 0,97 H 18896 V 24849 H 0 V 97"
         transform="matrix(0,-1,-1,0,8752.9999,6261.9999)"
         id="path796-7" /></clipPath></defs><g
     id="layer-oc1"
     inkscape:groupmode="layer"
     inkscape:label="grey_fill"
     transform="matrix(0.26458334,0,0,0.26458334,220.00001,0)" /><g
     id="layer-oc5"
     inkscape:groupmode="layer"
     inkscape:label="black_fill"
     transform="matrix(0.26458333,0,0,0.26458333,220.00001,0)" /><g
     id="layer-oc2"
     inkscape:groupmode="layer"
     inkscape:label="outline"
     transform="matrix(0.26458334,0,0,0.26458334,220.00001,0)"
     style="display:inline"><g
       id="g832"
       transform="matrix(0.72684097,0,0,0.72684097,-225.11783,123.8647)"><path
         style="font-weight:600;font-size:1336.6px;font-family:'Avenir Next LT Pro';fill:#0070c0"
         d="m 858.09718,-946.31278 v 598.79679 q 0,168.41159 -108.26459,269.993191 Q 642.90459,24.0588 477.16619,24.0588 311.42779,24.0588 203.1632,-77.522799 96.235198,-179.1044 96.235198,-347.51599 V -946.31278 H 264.6468 v 592.11379 q 0,94.89859 50.79079,161.72859 50.7908,65.4934 161.7286,65.4934 110.9378,0 161.7286,-65.4934 50.7908,-66.83 50.7908,-161.72859 v -592.11379 z"
         id="text796"
         clip-path="url(#clipPath797)"
         transform="matrix(0.04,0,0,0.04,-622.05269,536.74746)"
         aria-label="U" /><path
         style="font-weight:600;font-size:1336.6px;font-family:'Avenir Next LT Pro'"
         d="M 96.235198,0 V -641.56799 H 249.9442 v 106.928 h 2.6732 q 26.73199,-57.4738 76.18619,-90.8888 49.4542,-34.7516 110.9378,-34.7516 22.7222,0 38.7614,4.0098 v 147.026 q -26.732,-6.683 -49.4542,-6.683 -41.4346,0 -73.513,13.366 -32.0784,13.366 -50.7908,33.415 -17.3758,20.049 -29.4052,45.4444 -10.69279,24.0588 -14.70259,44.1078 -4.0098,20.049 -4.0098,36.0882 V 0 Z M 585.43123,-1010.4696 h 160.39199 v 450.43421 h 4.0098 q 80.196,-100.245 215.1926,-100.245 136.33318,0 223.21218,96.2352 88.2156,96.2352 88.2156,240.588 0,144.35279 -86.879,243.261191 Q 1104.032,18.7124 961.01582,18.7124 q -68.1666,0 -128.3136,-29.4052 -60.147,-30.741799 -92.2254,-85.542398 h -2.6732 V 0 H 585.43123 Z m 478.50277,832.7018 q 49.4542,-62.8202 49.4542,-145.68939 0,-82.8692 -49.4542,-144.3528 -48.1176,-61.4836 -134.99658,-61.4836 -84.2058,0 -136.3332,64.1568 -52.1274,64.1568 -52.1274,144.3528 0,80.19599 52.1274,143.01619 52.1274,62.8202 136.3332,62.8202 86.87898,0 134.99658,-62.8202 z M 1829.8062,0 v -81.532599 h -4.0098 q -24.0588,42.7712 -78.8594,70.839799 -53.464,26.732 -120.294,26.732 -92.2254,0 -167.075,-48.117599 -73.513,-49.4542 -73.513,-151.035801 0,-54.8006 26.732,-94.89859 28.0686,-41.4346 69.5032,-64.1568 41.4346,-22.7222 102.9182,-36.0882 62.8202,-14.7026 117.6208,-18.7124 56.1372,-4.0098 124.3038,-4.0098 v -16.0392 q 0,-56.1372 -41.4346,-86.879 -41.4346,-30.7418 -105.5914,-30.7418 -101.5816,0 -175.0946,73.513 l -82.8692,-97.5718 q 109.6012,-101.5816 271.3298,-101.5816 82.8692,0 140.343,24.0588 58.8103,22.7222 89.5521,64.1568 30.7418,40.098 42.7712,85.5424 13.366,44.1078 13.366,96.2352 V 0 Z m -2.6732,-269.9932 v -22.72219 h -36.0882 q -244.5978,0 -244.5978,106.92799 0,42.7712 32.0784,61.4836 33.415,18.7124 80.196,18.7124 81.5326,0 124.3038,-42.7712 44.1078,-44.1078 44.1078,-121.6306 z M 2166.6283,0 v -641.56799 h 152.3724 v 102.9182 h 2.6732 q 22.7222,-50.7908 76.1862,-85.5424 54.8006,-36.0882 122.9672,-36.0882 117.6208,0 176.4312,76.1862 60.147,74.8496 60.147,183.1142 V 0 h -160.392 v -355.53559 q 0,-171.0848 -120.294,-171.0848 -72.1764,0 -110.9378,52.1274 -38.7614,50.7908 -38.7614,121.6306 V 0 Z"
         id="text797"
         clip-path="url(#clipPath798)"
         transform="matrix(0.04,0,0,0.04,-583.89269,536.74746)"
         aria-label="rban" /><path
         style="font-weight:600;font-size:1336.6px;font-family:'Avenir Next LT Pro';fill:#ff0000"
         d="M 104.2548,0 V -946.31278 H 272.6664 V 0 Z"
         id="text798"
         clip-path="url(#clipPath799)"
         transform="matrix(0.04,0,0,0.04,-445.85269,536.74746)"
         aria-label="I" /><path
         style="font-weight:600;font-size:1336.6px;font-family:'Avenir Next LT Pro'"
         d="M 96.235198,0 V -641.56799 H 248.6076 v 102.9182 h 2.6732 q 22.72219,-50.7908 76.18619,-85.5424 54.8006,-36.0882 122.9672,-36.0882 117.6208,0 176.4312,76.1862 60.147,74.8496 60.147,183.1142 V 0 h -160.392 v -355.53559 q 0,-171.0848 -120.294,-171.0848 -72.1764,0 -110.9378,52.1274 -38.76139,50.7908 -38.76139,121.6306 V 0 Z M 894.18636,-513.25439 h -112.2744 v -128.3136 h 112.2744 v -185.78739 h 157.71884 v 185.78739 h 160.392 v 128.3136 h -160.392 v 298.06179 q 0,48.1176 17.3758,73.513 17.3758,25.3954 66.83,25.3954 41.4346,0 68.1666,-13.366 l 5.3464,125.6404001 Q 1164.1796,13.366 1102.696,13.366 985.07516,13.366 939.63076,-46.780999 894.18636,-108.2646 894.18636,-213.856 Z m 557.36234,128.3136 h 328.8036 q 0,-66.83 -38.7614,-110.9378 -38.7614,-44.1078 -112.2744,-44.1078 -70.8398,0 -121.6306,44.1078 -50.7908,44.1078 -56.1372,110.9378 z m 489.1956,72.1764 q 0,28.0686 -1.3366,42.77119 h -487.859 q 5.3464,66.83 58.8104,112.2744 53.464,45.4444 124.3038,45.4444 110.9378,0 169.7482,-82.8692 l 106.928,85.5424 q -94.8986,128.3136 -275.3396,128.3136 -151.0358,0 -248.6076,-90.888799 -96.2352,-90.888801 -96.2352,-244.597791 0,-153.709 96.2352,-248.6076 96.2352,-94.8986 243.2612,-94.8986 139.0064,0 224.5488,89.5522 85.5424,89.5522 85.5424,257.9638 z M 2098.4624,0 v -1010.4696 h 160.392 V 0 Z m 358.2082,0 v -1010.4696 h 160.392 V 0 Z m 358.2083,0 v -641.56799 h 160.392 V 0 Z m 6.683,-791.26719 q -29.4052,-29.4052 -29.4052,-68.16659 0,-38.7614 29.4052,-66.83 29.4052,-29.4052 72.1764,-29.4052 44.1078,0 73.513,28.0686 30.7418,26.732 30.7418,68.1666 0,41.43459 -30.7418,69.50319 -29.4052,26.732 -73.513,26.732 -42.7712,0 -72.1764,-28.0686 z m 848.7406,149.6992 h 152.3724 v 584.094191 q 0,179.104399 -90.8888,278.012799 -89.5522,100.24499 -271.3298,100.24499 -81.5326,0 -169.7481,-28.0686 -88.2156,-28.06859 -148.3626,-77.52279 L 3234.571,90.888798 q 94.8986,90.888802 224.5487,90.888802 203.1632,0 203.1632,-220.538999 v -46.780999 h -2.6732 Q 3587.4333,10.6928 3449.7635,10.6928 q -140.3429,0 -228.5585,-96.235198 -88.2156,-97.571802 -88.2156,-237.914792 0,-143.0162 85.5424,-239.2514 86.879,-97.5718 228.5585,-97.5718 151.0358,0 220.539,114.9476 h 2.6732 z m -189.7972,112.2744 q -84.2058,0 -134.9965,58.8104 -49.4542,57.4738 -49.4542,145.6894 0,81.53259 49.4542,143.01619 50.7907,60.147 133.6599,60.147 85.5424,0 137.6698,-58.8104 53.464,-60.147 53.464,-144.35279 0,-85.5424 -52.1274,-144.3528 -52.1274,-60.147 -137.6698,-60.147 z m 657.607,144.3528 h 328.8036 q 0,-66.83 -38.7614,-110.9378 -38.7614,-44.1078 -112.2744,-44.1078 -70.8398,0 -121.6306,44.1078 -50.7908,44.1078 -56.1372,110.9378 z m 489.1956,72.1764 q 0,28.0686 -1.3366,42.77119 h -487.859 q 5.3464,66.83 58.8104,112.2744 53.464,45.4444 124.3038,45.4444 110.9378,0 169.7482,-82.8692 l 106.928,85.5424 q -94.8986,128.3136 -275.3396,128.3136 -151.0358,0 -248.6076,-90.888799 -96.2352,-90.888801 -96.2352,-244.597791 0,-153.709 96.2352,-248.6076 96.2352,-94.8986 243.2612,-94.8986 139.0064,0 224.5488,89.5522 85.5424,89.5522 85.5424,257.9638 z M 4782.3529,0 v -641.56799 h 152.3724 v 102.9182 h 2.6732 q 22.7222,-50.7908 76.1862,-85.5424 54.8006,-36.0882 122.9672,-36.0882 117.6208,0 176.4312,76.1862 60.147,74.8496 60.147,183.1142 V 0 h -160.392 v -355.53559 q 0,-171.0848 -120.294,-171.0848 -72.1764,0 -110.9378,52.1274 -38.7614,50.7908 -38.7614,121.6306 V 0 Z m 1325.9078,-560.03539 -109.6012,96.2352 q -18.7124,-26.732 -56.1372,-44.1078 -37.4248,-18.7124 -76.1862,-18.7124 -82.8692,0 -129.6502,62.8202 -46.781,61.4836 -46.781,143.0162 0,82.86919 48.1176,144.35279 48.1176,61.4836 133.66,61.4836 88.2156,0 134.9966,-57.4738 l 100.245,101.581601 Q 6024.0549,18.7124 5870.3459,18.7124 q -147.026,0 -247.271,-92.225399 -100.245,-92.225401 -100.245,-247.270991 0,-152.3724 98.9084,-245.9344 98.9084,-93.562 244.5978,-93.562 70.8398,0 137.6698,26.732 66.83,26.732 104.2548,73.513 z m 227.2234,175.0946 h 328.8036 q 0,-66.83 -38.7614,-110.9378 -38.7614,-44.1078 -112.2744,-44.1078 -70.8398,0 -121.6306,44.1078 -50.7908,44.1078 -56.1372,110.9378 z m 489.1956,72.1764 q 0,28.0686 -1.3366,42.77119 h -487.859 q 5.3464,66.83 58.8104,112.2744 53.464,45.4444 124.3038,45.4444 110.9378,0 169.7482,-82.8692 l 106.928,85.5424 q -94.8986,128.3136 -275.3396,128.3136 -151.0358,0 -248.6076,-90.888799 -96.2352,-90.888801 -96.2352,-244.597791 0,-153.709 96.2352,-248.6076 96.2352,-94.8986 243.2612,-94.8986 139.0064,0 224.5488,89.5522 85.5424,89.5522 85.5424,257.9638 z"
         id="text799"
         clip-path="url(#clipPath800)"
         transform="matrix(0.04,0,0,0.04,-430.77269,536.74746)"
         aria-label="ntelligence" /><path
         style="font-weight:600;font-size:1336.6px;font-family:'Avenir Next LT Pro';fill:#ffc000"
         d="m -10.6928,0 411.67279,-946.31278 h 145.6894 L 954.33238,0 H 761.86199 l -88.2156,-216.5292 H 263.3102 L 177.7678,0 Z m 331.47679,-360.88199 h 294.052 l -145.6894,-384.9408 z"
         id="text800"
         clip-path="url(#clipPath801)"
         transform="matrix(0.04,0,0,0.04,-378.89269,592.54746)"
         aria-label="A" /><path
         style="font-weight:600;font-size:1336.6px;font-family:'Avenir Next LT Pro'"
         d="M 96.235198,0 V -641.56799 H 248.6076 v 102.9182 h 2.6732 q 22.72219,-50.7908 76.18619,-85.5424 54.8006,-36.0882 122.9672,-36.0882 117.6208,0 176.4312,76.1862 60.147,74.8496 60.147,183.1142 V 0 h -160.392 v -355.53559 q 0,-171.0848 -120.294,-171.0848 -72.1764,0 -110.9378,52.1274 -38.76139,50.7908 -38.76139,121.6306 V 0 Z M 1272.4442,0 v -81.532599 h -4.0098 q -24.0588,42.7712 -78.8594,70.839799 -53.464,26.732 -120.294,26.732 -92.22544,0 -167.07504,-48.117599 -73.513,-49.4542 -73.513,-151.035801 0,-54.8006 26.732,-94.89859 28.0686,-41.4346 69.5032,-64.1568 41.4346,-22.7222 102.91824,-36.0882 62.8202,-14.7026 117.6208,-18.7124 56.1372,-4.0098 124.3038,-4.0098 v -16.0392 q 0,-56.1372 -41.4346,-86.879 -41.4346,-30.7418 -105.5914,-30.7418 -101.5816,0 -175.09464,73.513 l -82.8692,-97.5718 q 109.6012,-101.5816 271.32984,-101.5816 82.8692,0 140.343,24.0588 58.8104,22.7222 89.5521,64.1568 30.7418,40.098 42.7712,85.5424 13.366,44.1078 13.366,96.2352 V 0 Z m -2.6732,-269.9932 v -22.72219 h -36.0882 q -244.59784,0 -244.59784,106.92799 0,42.7712 32.07844,61.4836 33.415,18.7124 80.196,18.7124 81.5326,0 124.3038,-42.7712 44.1078,-44.1078 44.1078,-121.6306 z M 1611.9395,0 v -1010.4696 h 160.392 V 0 Z m 534.6396,0 -275.3396,-641.56799 h 177.7678 l 179.1044,466.47339 h 2.6732 l 159.0554,-466.47339 h 167.075 L 2253.5071,137.6698 q -37.4248,94.8986 -90.8888,139.00639 -52.1274,44.1078 -152.3724,44.1078 -44.1078,0 -82.8692,-9.3562 l 13.366,-139.00639 q 29.4052,9.3562 60.147,9.3562 48.1176,0 69.5032,-22.7222 21.3856,-21.3856 44.1078,-77.522801 z m 526.6211,-513.25439 h -112.2744 v -128.3136 h 112.2744 v -185.78739 h 157.7188 v 185.78739 h 160.392 v 128.3136 h -160.392 v 298.06179 q 0,48.1176 17.3758,73.513 17.3758,25.3954 66.83,25.3954 41.4346,0 68.1666,-13.366 l 5.3464,125.6404001 Q 2943.1934,13.366 2881.7098,13.366 2764.089,13.366 2718.6446,-46.780999 2673.2002,-108.2646 2673.2002,-213.856 Z M 3110.2685,0 v -641.56799 h 160.392 V 0 Z m 6.683,-791.26719 q -29.4052,-29.4052 -29.4052,-68.16659 0,-38.7614 29.4052,-66.83 29.4052,-29.4052 72.1764,-29.4052 44.1078,0 73.513,28.0686 30.7418,26.732 30.7418,68.1666 0,41.43459 -30.7418,69.50319 -29.4052,26.732 -73.513,26.732 -42.7712,0 -72.1764,-28.0686 z m 896.858,231.2318 -109.6012,96.2352 q -18.7124,-26.732 -56.1371,-44.1078 -37.4248,-18.7124 -76.1862,-18.7124 -82.8692,0 -129.6502,62.8202 -46.781,61.4836 -46.781,143.0162 0,82.86919 48.1176,144.35279 48.1176,61.4836 133.66,61.4836 88.2156,0 134.9965,-57.4738 l 100.245,101.581601 Q 3929.6037,18.7124 3775.8948,18.7124 q -147.026,0 -247.271,-92.225399 -100.245,-92.225401 -100.245,-247.270991 0,-152.3724 98.9084,-245.9344 98.9084,-93.562 244.5978,-93.562 70.8398,0 137.6697,26.732 66.83,26.732 104.2548,73.513 z m 560.0366,-2.6732 -104.2548,92.2254 q -22.7222,-29.4052 -60.147,-49.4542 -37.4248,-20.049 -80.196,-20.049 -42.7712,0 -73.513,17.3758 -29.4052,17.3758 -29.4052,52.1274 0,33.415 30.7418,49.4542 30.7418,16.0392 108.2646,34.7516 41.4346,9.3562 73.513,22.7222 32.0784,12.0294 64.1568,33.415 33.415,21.3856 50.7908,56.1372 18.7124,34.75159 18.7124,78.85939 0,109.601202 -76.1862,161.728601 -74.8496,52.127399 -191.1338,52.127399 -76.1862,0 -147.026,-28.0685998 -70.8398,-28.0685992 -116.2842,-77.5227982 l 105.5914,-98.908402 q 61.4836,80.196 164.4018,80.196 41.4346,0 72.1764,-18.7124 30.7418,-18.7124 30.7418,-57.4738 0,-37.4248 -33.415,-54.8006 -32.0784,-18.7124 -113.611,-37.42479 -86.879,-21.3856 -139.0064,-60.147 -50.7908,-40.098 -50.7908,-121.6306 0,-100.245 74.8496,-152.3724 74.8496,-52.1274 180.441,-52.1274 72.1764,0 137.6698,25.3954 65.4934,25.3954 102.9182,72.1764 z"
         id="text801"
         clip-path="url(#clipPath802)"
         transform="matrix(0.04,0,0,0.04,-340.69269,592.54746)"
         aria-label="nalytics" /><path
         style="font-weight:600;font-size:1336.6px;font-family:'Avenir Next LT Pro'"
         d="M 951.65918,-499.88839 761.86199,-225.8854 982.40098,0 H 768.54499 L 664.29019,-108.2646 Q 556.02559,18.7124 380.93099,18.7124 248.6076,18.7124 156.3822,-53.463999 64.156799,-126.977 64.156799,-256.6272 q 0,-180.44099 205.836401,-268.65659 -101.5816,-104.2548 -101.5816,-212.5194 0,-113.61099 78.8594,-172.42139 80.19599,-60.147 188.46059,-60.147 109.6012,0 185.7874,60.147 76.1862,58.8104 76.1862,169.74819 0,161.7286 -193.807,251.2808 l 155.0456,161.7286 109.6012,-172.4214 z m -435.73159,-310.0912 q -30.7418,-30.74179 -77.5228,-30.74179 -46.781,0 -78.8594,30.74179 -32.0784,29.4052 -32.0784,74.8496 0,74.8496 84.2058,151.0358 136.3332,-57.4738 136.3332,-151.0358 0,-44.1078 -32.0784,-74.8496 z m 46.781,597.46019 -201.8266,-209.84619 q -130.98679,48.1176 -130.98679,159.05539 0,65.4934 48.11759,106.928 49.4542,41.4346 108.2646,41.4346 105.5914,0 176.4312,-97.5718 z"
         id="text802"
         clip-path="url(#clipPath803)"
         transform="matrix(0.04,0,0,0.04,-445.21269,590.94746)"
         aria-label="&amp;" /></g><path
       id="path804"
       d="M 0,96 H 18896"
       style="display:none;fill:none;stroke:#ffffff;stroke-width:1;stroke-linecap:round;stroke-linejoin:round;stroke-miterlimit:10;stroke-dasharray:none;stroke-opacity:1"
       transform="matrix(0,-0.04,-0.04,0,1058.6667,774.66667)"
       clip-path="url(#clipPath805)" /><path
       id="path1"
       clip-path="url(#clipPath2-3)"
       style="fill:#7f7f7f;fill-opacity:1;fill-rule:nonzero;stroke:#7f7f7f;stroke-width:1;stroke-linecap:butt;stroke-linejoin:miter;stroke-miterlimit:10;stroke-dasharray:none;stroke-opacity:1"
       d="m 16255.135,12544.938 c -6.646,320.948 -106.086,636.339 -290.918,906.104 -263.344,384.354 -675.658,640.509 -1136.572,706.592 a 42.5,42.5 0 0 0 -2.637,-0.147 v -1222.998 c 556.812,0.152 1078.136,-265.47 1405.567,-710.889 18.686,106.73 26.775,214.356 24.56,321.338 z m -1431.152,1612.549 h -6399.1699 -0.8301 -0.293 c -556.4479,0.567 -1077.1341,266.551 -1404.0527,712.012 -75.1207,-427.274 19.4956,-868.502 266.1621,-1228.516 262.862,-383.65 674.0936,-639.641 1133.9844,-706.299 2.508,-0.109 5.0093,-0.191 7.5195,-0.293 a 42.5,42.5 0 0 0 6.9824,-0.878 H 14815.78 a 42.5,42.5 0 0 0 8.203,0.976 z"
       transform="matrix(0,-0.04,-0.04,0,-49.319363,710.55156)" /><rect
       style="fill:#7f7f7f;fill-opacity:1;stroke-width:0.18941;stroke-linejoin:round"
       id="rect1"
       width="48.811237"
       height="1.7907858"
       x="-615.55829"
       y="116.82436" /><path
       id="path118"
       style="fill:#000000;fill-opacity:1;fill-rule:nonzero;stroke:#000000;stroke-width:0.0415748;stroke-linecap:round;stroke-linejoin:round;stroke-miterlimit:10;stroke-dasharray:none;stroke-opacity:1"
       d="m -523.53879,29.211389 c -41.3795,0 -76.5682,27.29564 -88.13867,65.152355 5.24656,-9.99003 12.88848,-18.67237 22.39453,-25.185555 12.20076,-8.35949 26.62575,-12.56608 41.16993,-12.22852 4.84709,0.1125 9.70774,0.73082 14.5039,1.86719 h 0.002 a 1.7000001,1.7000001 0 0 1 0.23633,0.0762 c 27.87336,6.71048 48.84745,29.746395 52.89258,58.123051 a 1.6999994,1.6999994 0 0 1 0.0996,0.57226 v 270.70118 h 48.95703 V 117.91647 a 1.7000001,1.7000001 0 0 1 -0.0332,-0.27344 c -2.00079,-49.425691 -42.61782,-88.431641 -92.08399,-88.431641 z m -227.31836,73.597661 v 270.74609 a 1.6999994,1.6999994 0 0 1 -0.002,0.0625 c 2.07538,49.21543 42.4443,88.06106 91.67383,88.27344 l 0.28711,-0.43554 a 1.7001701,1.7001701 0 0 1 0.0137,-0.0215 l 1.27539,-1.87304 0.63086,-0.94532 0.58594,-0.89843 0.59179,-0.94727 0.59961,-0.95898 0.58594,-0.9375 0.54688,-0.93946 0.55273,-0.94531 0.53906,-0.96484 0.50782,-0.97657 0.50781,-0.97656 0.46875,-0.97461 0.46289,-0.96484 0.42383,-1.00196 0.43945,-1.04101 0.42969,-1.01367 0.39062,-1.01367 0.39844,-1.03907 0.38672,-1.0039 0.34765,-1.04493 0.36133,-1.08007 a 1.7001701,1.7001701 0 0 1 0.006,-0.0176 l 0.35547,-1.03125 0.35352,-1.05664 0.66992,-2.12891 0.63476,-2.18164 a 1.7001701,1.7001701 0 0 1 0.0117,-0.0352 l 0.15821,-0.50586 c -1.01884,-0.19399 -2.03501,-0.41013 -3.04883,-0.65039 a 1.7000001,1.7000001 0 0 0 -0.002,0 1.7000001,1.7000001 0 0 1 -0.2246,-0.0723 c -15.21511,-3.66071 -28.23945,-12.29719 -37.7129,-23.90039 l -0.52343,-0.6543 -0.64063,-0.71875 -1.18555,-1.63086 c -0.87346,-1.19742 -1.74192,-2.38579 -2.53906,-3.63867 l -0.0351,-0.0508 -0.63868,-1.08008 -1.04101,-1.7207 -1.03906,-1.95899 -0.52149,-0.91992 -0.14062,-0.29492 c -0.63642,-1.26089 -1.20276,-2.54879 -1.76368,-3.85156 l -0.77539,-1.81446 -0.19921,-0.51953 -0.91993,-2.51953 -0.13672,-0.43555 c -0.57665,-1.71016 -1.05626,-3.44935 -1.50195,-5.21484 l -0.16211,-0.63086 -0.56054,-2.59961 -0.11915,-0.59961 -0.0156,-0.0957 c -0.22299,-1.16062 -0.5887,-2.26946 -0.75391,-3.44922 a 1.6999994,1.6999994 0 0 1 -0.0391,-0.35938 v -0.0117 a 1.7000001,1.7000001 0 0 1 0,-0.0586 V 102.80905 Z m 180.21485,293.93164 c -5.24663,9.98929 -12.88884,18.67067 -22.39453,25.1836 -14.45764,9.9058 -32.03614,13.98027 -49.23829,11.57226 l -0.29687,0.94727 -0.63477,2.18164 a 1.7001701,1.7001701 0 0 1 -0.0117,0.0371 l -0.67969,2.16015 a 1.7001701,1.7001701 0 0 1 -0.008,0.0274 l -0.36133,1.07812 a 1.7001701,1.7001701 0 0 1 -0.006,0.0195 l -0.35742,1.03125 -0.35547,1.07032 -0.36133,1.08007 a 1.7001701,1.7001701 0 0 1 -0.0254,0.0723 l -0.40039,1.04102 -0.40039,1.03906 -0.39844,1.04101 a 1.7001701,1.7001701 0 0 1 -0.0215,0.0508 l -0.43946,1.04101 -0.4414,1.03906 -0.43946,1.04102 a 1.7001701,1.7001701 0 0 1 -0.0332,0.0723 l -0.48047,1 -0.47851,1 a 1.7001701,1.7001701 0 0 1 -0.0254,0.0488 l -0.51953,1 -0.51953,1 a 1.7001701,1.7001701 0 0 1 -0.0254,0.0469 l -0.56055,1 a 1.7001701,1.7001701 0 0 1 -0.0137,0.0254 l -0.56054,0.96094 -0.56055,0.95898 a 1.7001701,1.7001701 0 0 1 -0.0273,0.0449 l -0.59961,0.95899 -0.59961,0.96093 -0.59961,0.95899 a 1.7001701,1.7001701 0 0 1 -0.0176,0.0293 l -0.59961,0.91992 a 1.7001701,1.7001701 0 0 1 -0.01,0.0137 l -0.64062,0.95898 a 1.7001701,1.7001701 0 0 1 -0.01,0.0156 l -0.23632,0.34765 c 39.74391,-1.59074 73.16908,-28.36868 84.38867,-65.07617 z" /><path
       style="font-weight:700;font-size:2096.66px;font-family:Aharoni;display:inline;fill:#0070c0"
       d="m 1365.6955,-591.73312 q 0,125.92245 -20.4752,214.98954 -31.7366,138.20756 -151.5165,251.84489 -169.9441,160.73028 -454.54928,160.73028 -289.724,0 -452.5018,-163.80156 -85.99581,-85.99581 -117.73237,-216.0133 -22.52271,-92.13837 -22.52271,-247.74985 V -1397.432 h 363.4347 v 756.55841 q 0,91.11462 3.07128,136.16005 10.2376,142.3026 130.01749,198.60938 49.14046,23.54648 108.51853,23.54648 133.08876,0 200.6569,-93.16214 50.16426,-68.5919 50.16426,-265.15377 V -1397.432 h 363.4347 z"
       id="text793"
       clip-path="url(#clipPath794-15)"
       transform="matrix(0.04,0,0,0.04,-486.2394,460.07156)"
       aria-label="U" /><path
       style="font-weight:700;font-size:2096.66px;font-family:Aharoni;display:inline;fill:#ff0000"
       d="m 509.83234,0 h -363.4347 v -1397.432 h 363.4347 z"
       id="text794"
       clip-path="url(#clipPath795-2)"
       transform="matrix(0.04,0,0,0.04,-425.7594,460.07156)"
       aria-label="I" /><path
       style="font-weight:700;font-size:2096.66px;font-family:Aharoni;display:inline;fill:#ffc000"
       d="M 1474.214,0 H 1086.2091 L 996.11821,-243.65481 H 494.47595 L 398.24253,0 H 14.332636 L 551.80649,-1397.432 H 948.0015 Z M 897.83728,-520.06994 747.3446,-965.40542 594.8044,-520.06994 Z"
       id="text795"
       clip-path="url(#clipPath796-9)"
       transform="matrix(0.04,0,0,0.04,-399.4394,460.07156)"
       aria-label="A" /><path
       id="path4"
       style="baseline-shift:baseline;display:inline;overflow:visible;vector-effect:none;stroke-linecap:round;stroke-linejoin:round;stroke-miterlimit:10;enable-background:accumulate;stop-color:#000000"
       d="M -413.49218 195.3496 A 0.56 0.56 0 0 0 -413.63672 195.37304 L -413.63867 195.375 A 0.56 0.56 0 0 0 -413.97265 195.64453 L -417.68945 202.51953 L -419.60547 205.9121 L -421.56054 209.26367 L -423.58984 212.56835 L -425.73632 215.74804 L -428.02343 218.82031 L -428.02343 220.63476 L -427.1582 219.53906 A 0.560056 0.560056 0 0 0 -427.14843 219.52539 L -424.82812 216.40429 A 0.560056 0.560056 0 0 0 -424.81445 216.38476 L -422.65429 213.18359 A 0.560056 0.560056 0 0 0 -422.64062 213.16406 L -420.59961 209.84374 A 0.560056 0.560056 0 0 0 -420.59375 209.83203 L -418.63476 206.4707 A 0.560056 0.560056 0 0 0 -418.63086 206.46484 L -416.71093 203.06445 A 0.560056 0.560056 0 0 0 -416.70507 203.05468 L -412.98437 196.17578 A 0.56 0.56 0 0 0 -413.21093 195.41601 A 0.56 0.56 0 0 0 -413.49218 195.3496 z M -435.18359 227.26562 L -435.52734 227.64648 L -438.23437 230.39453 L -441.02734 233.10742 L -443.85742 235.77734 L -446.77148 238.37109 L -449.72461 240.96679 L -452.71679 243.47851 L -458.83203 248.43554 L -464.95117 253.35546 L -477.14843 263.15234 L -477.93359 263.76757 L -477.93359 265.19335 L -476.45312 264.03124 A 0.560056 0.560056 0 0 0 -476.44921 264.02734 L -464.24804 254.22851 L -458.1289 249.30663 A 0.560056 0.560056 0 0 0 -458.12695 249.30663 L -452.00781 244.3457 A 0.560056 0.560056 0 0 0 -451.99804 244.33984 L -448.99804 241.82031 A 0.560056 0.560056 0 0 0 -448.98828 241.81249 L -446.02734 239.21093 A 0.560056 0.560056 0 0 0 -446.02539 239.20898 L -443.10546 236.60937 A 0.560056 0.560056 0 0 0 -443.09375 236.59765 L -440.2539 233.91796 A 0.560056 0.560056 0 0 0 -440.24804 233.9121 L -437.44726 231.19335 A 0.560056 0.560056 0 0 0 -437.43945 231.18359 L -435.18359 228.89453 L -435.18359 227.26562 z M -483.77539 268.34179 L -489.41601 272.6621 L -495.68749 277.25781 L -502.00585 281.77538 A 0.56 0.56 0 0 0 -502.13476 282.55663 A 0.56 0.56 0 0 0 -501.35351 282.68749 L -495.0332 278.16601 A 0.560056 0.560056 0 0 0 -495.02929 278.1621 L -488.74804 273.56249 A 0.560056 0.560056 0 0 0 -488.73828 273.55468 L -483.77539 269.7539 L -483.77539 268.34179 z " /><path
       id="path375"
       d="m -607.03937,255.43156 -3.24,2.2 -3.16,2.32 -1.56,1.2 -1.52,1.2 -1.44,1.32 -1.44,1.32 -1.32,1.44 -1.32,1.48 -1.2,1.56 -1.08,1.6 -1,1.68 -0.92,1.76 -0.76,1.84 -0.6,1.84 -0.48,1.92 -0.16,0.96 -0.16,0.96 -0.12,1.92 -0.04,1.96 0.12,1.96 0.2,1.96 0.28,1.96 0.36,1.92 0.8,3.84 0.96,3.8 1.04,3.76 1.04,3.76"
       style="fill:none;stroke:#000000;stroke-width:1.12;stroke-linecap:round;stroke-linejoin:round;stroke-miterlimit:10;stroke-dasharray:none;stroke-opacity:1" /><path
       id="path376"
       d="m -579.67937,234.23156 4.36,-1.52 4.32,-1.56 2.16,-0.84 2.12,-0.84 2.12,-0.92 2.08,-1 2.08,-1.04 2,-1.16 2,-1.2 1.96,-1.32 1.84,-1.4 1.8,-1.52 0.8,-0.8 0.8,-0.8 0.76,-0.88 0.72,-0.88 0.68,-0.92 0.64,-0.96 0.56,-0.96 0.52,-1 0.52,-1.04 0.44,-1.04 0.8,-2.16 0.68,-2.24 0.6,-2.28 0.48,-2.32 0.4,-2.32 0.68,-4.68 0.6,-4.6 0.52,-4.56 0.48,-4.52"
       style="fill:none;stroke:#000000;stroke-width:1.12;stroke-linecap:round;stroke-linejoin:round;stroke-miterlimit:10;stroke-dasharray:none;stroke-opacity:1" /><path
       id="path377"
       d="m -658.91937,199.95156 -2.84,1.12 -1.4,0.56 -1.36,0.64 -1.32,0.64 -1.32,0.72 -1.24,0.8 -1.2,0.84 -1.2,0.92 -1.12,0.96 -1.12,1 -1.08,1.08 -2.12,2.16 -2.04,2.24"
       style="fill:none;stroke:#000000;stroke-width:1.12;stroke-linecap:round;stroke-linejoin:round;stroke-miterlimit:10;stroke-dasharray:none;stroke-opacity:1" /><path
       id="path5"
       style="baseline-shift:baseline;display:inline;overflow:visible;vector-effect:none;stroke-linecap:round;stroke-linejoin:round;stroke-miterlimit:10;enable-background:accumulate;stop-color:#000000"
       d="m -388.5251,91.490684 a 1.7,1.7 0 0 0 -1.5664,1.05664 l -5.91602,14.425786 -3.07031,7.13867 -3.1543,7.10742 -1.58984,3.53711 -1.67188,3.5039 -1.67187,3.50196 -1.74805,3.45508 -1.79102,3.46289 -1.82812,3.41992 -1.86133,3.36523 -1.98633,3.33594 -1.98632,3.33789 -2.09961,3.28711 -2.14258,3.25391 -2.21875,3.20898 -2.28906,3.16016 -0.90235,1.15429 v 5.41407 l 1.1211,-1.33399 a 1.70017,1.70017 0 0 0 0.0371,-0.0469 l 2.44141,-3.11914 a 1.70017,1.70017 0 0 0 0.0371,-0.0508 l 2.32032,-3.19722 a 1.70017,1.70017 0 0 0 0.0215,-0.0312 l 2.24023,-3.24024 a 1.70017,1.70017 0 0 0 0.0215,-0.0312 l 2.16015,-3.28125 a 1.70017,1.70017 0 0 0 0.0117,-0.0195 l 2.12109,-3.32031 a 1.70017,1.70017 0 0 0 0.0274,-0.0449 l 2,-3.35938 2,-3.36132 a 1.70017,1.70017 0 0 0 0.0273,-0.0469 l 1.87891,-3.39844 a 1.70017,1.70017 0 0 0 0.0117,-0.0215 l 1.83984,-3.43945 a 1.70017,1.70017 0 0 0 0.0117,-0.0215 l 1.79883,-3.48047 a 1.70017,1.70017 0 0 0 0.008,-0.0137 l 1.75977,-3.47851 a 1.70017,1.70017 0 0 0 0.0176,-0.0352 l 1.67969,-3.52148 1.67969,-3.51954 a 1.70017,1.70017 0 0 0 0.0176,-0.0351 l 1.59961,-3.56055 a 1.70017,1.70017 0 0 0 0.004,-0.006 l 3.15821,-7.12109 a 1.70017,1.70017 0 0 0 0.008,-0.0176 l 3.08008,-7.16016 a 1.70017,1.70017 0 0 0 0.0117,-0.0273 l 5.91993,-14.439446 a 1.7,1.7 0 0 0 -0.92774,-2.21875 1.7,1.7 0 0 0 -0.65039,-0.12696 z m -42.89648,78.894526 -0.58789,0.69922 -2.56641,2.92188 -1.2832,1.36133 -1.37305,1.37304 -1.38281,1.3418 -1.37305,1.29687 -1.44336,1.28516 -1.4414,1.20898 -1.5,1.1836 -1.48243,1.16992 -1.54687,1.08398 -1.58789,1.07227 -1.56055,1.05273 -1.63281,0.97071 -3.33203,1.94531 -3.39453,1.85547 -3.45313,1.74609 -3.50976,1.75391 -7.02149,3.43164 -7.0625,3.3125 -0.42187,0.19531 v 3.74414 l 1.85351,-0.85937 a 1.70017,1.70017 0 0 0 0.008,-0.002 l 7.08007,-3.32031 a 1.70017,1.70017 0 0 0 0.0234,-0.0117 l 7.04102,-3.4414 a 1.70017,1.70017 0 0 0 0.0137,-0.006 l 3.51953,-1.75977 a 1.70017,1.70017 0 0 0 0.008,-0.004 l 3.48047,-1.75977 a 1.70017,1.70017 0 0 0 0.0469,-0.0254 l 3.43945,-1.88086 a 1.70017,1.70017 0 0 0 0.043,-0.0234 l 3.35937,-1.95898 a 1.70017,1.70017 0 0 0 0.0137,-0.008 l 1.67969,-1 a 1.70017,1.70017 0 0 0 0.0801,-0.0527 l 1.60156,-1.08008 1.59961,-1.07812 a 1.70017,1.70017 0 0 0 0.0234,-0.0176 l 1.59961,-1.11914 a 1.70017,1.70017 0 0 0 0.0781,-0.0586 l 1.52149,-1.20118 1.51953,-1.19921 a 1.70017,1.70017 0 0 0 0.0391,-0.0312 l 1.47852,-1.24024 a 1.70017,1.70017 0 0 0 0.041,-0.0332 l 1.47852,-1.32031 a 1.70017,1.70017 0 0 0 0.0351,-0.0332 l 1.4004,-1.31836 a 1.70017,1.70017 0 0 0 0.0176,-0.0176 l 1.40039,-1.36132 a 1.70017,1.70017 0 0 0 0.0176,-0.0176 l 1.40039,-1.39844 a 1.70017,1.70017 0 0 0 0.0352,-0.0371 l 1.32031,-1.40039 a 1.70017,1.70017 0 0 0 0.0391,-0.043 l 0.6211,-0.70703 z m -52.35938,33.83789 -3.24023,1.5 -7.09961,3.15039 -7.14062,3.07227 -7.1836,2.99414 -7.18359,2.91211 -7.2168,2.83203 -7.29883,2.71094 -7.30273,2.63476 -7.34766,2.55469 -7.3457,2.51563 -7.38867,2.43554 -14.83789,4.83985 a 1.7,1.7 0 0 0 -1.08789,2.14257 1.7,1.7 0 0 0 2.14258,1.08985 l 14.83984,-4.83985 a 1.70017,1.70017 0 0 0 0.006,-0.002 l 7.40039,-2.43945 a 1.70017,1.70017 0 0 0 0.0176,-0.006 l 7.35937,-2.52149 a 1.70017,1.70017 0 0 0 0.008,-0.002 l 7.36132,-2.56055 a 1.70017,1.70017 0 0 0 0.0176,-0.006 l 7.32031,-2.64063 a 1.70017,1.70017 0 0 0 0.0156,-0.006 l 7.31836,-2.71875 a 1.70017,1.70017 0 0 0 0.0293,-0.0117 l 7.24024,-2.83984 a 1.70017,1.70017 0 0 0 0.0176,-0.008 l 7.20117,-2.91993 a 1.70017,1.70017 0 0 0 0.0137,-0.006 l 7.20117,-2.99999 a 1.70017,1.70017 0 0 0 0.0176,-0.01 l 7.16016,-3.08008 a 1.70017,1.70017 0 0 0 0.0176,-0.008 l 7.11914,-3.16016 a 1.70017,1.70017 0 0 0 0.0254,-0.01 l 1.82421,-0.84571 z" /><path
       id="path362"
       style="baseline-shift:baseline;display:inline;overflow:visible;vector-effect:none;stroke-linecap:round;stroke-linejoin:round;stroke-miterlimit:10;enable-background:accumulate;stop-color:#000000"
       d="m -694.18329,182.5317 -2.91993,0.0391 a 1.70017,1.70017 0 0 0 -0.0215,0.002 l -1.37305,0.0371 v 3.40235 l 1.45313,-0.0391 2.89648,-0.0391 h 2.92578 l 2.92578,0.0781 2.9375,0.11914 2.9375,0.1582 2.92383,0.19922 2.88672,0.27539 2.92578,0.31641 2.88477,0.39648 2.88476,0.43359 2.88672,0.51368 2.88477,0.55468 2.83398,0.62891 2.84766,0.71289 2.8457,0.75 2.79492,0.82617 2.78125,0.90235 2.70117,1.01757 2.69922,1.09571 2.55664,1.19922 2.54493,1.37109 1.23828,0.69726 1.16797,0.71485 1.1582,0.81055 1.17969,0.82617 2.29296,1.71093 2.17188,1.86133 2.11133,1.95508 2.03515,2.0332 2,2.15821 1.92774,2.20312 1.84961,2.24414 1.82031,2.33399 1.7832,2.33789 1.69727,2.33008 3.3457,4.82031 3.31836,4.83594 a 1.7,1.7 0 0 0 2.36328,0.43945 1.7,1.7 0 0 0 0.43946,-2.36328 l -3.31836,-4.83985 a 1.70017,1.70017 0 0 0 -0.006,-0.008 l -3.35938,-4.83984 a 1.70017,1.70017 0 0 0 -0.0234,-0.0332 l -1.7207,-2.35937 a 1.70017,1.70017 0 0 0 -0.0215,-0.0293 l -1.80078,-2.35937 a 1.70017,1.70017 0 0 0 -0.01,-0.0156 l -1.83984,-2.35937 a 1.70017,1.70017 0 0 0 -0.0293,-0.0371 l -1.88086,-2.2793 a 1.70017,1.70017 0 0 0 -0.0312,-0.0371 l -1.96094,-2.24023 a 1.70017,1.70017 0 0 0 -0.0332,-0.0371 l -2.03906,-2.19922 a 1.70017,1.70017 0 0 0 -0.0449,-0.0469 l -2.08008,-2.08007 a 1.70017,1.70017 0 0 0 -0.0469,-0.0449 l -2.16015,-2 a 1.70017,1.70017 0 0 0 -0.0488,-0.043 l -2.24024,-1.91993 a 1.70017,1.70017 0 0 0 -0.0898,-0.0723 l -2.35938,-1.75977 a 1.70017,1.70017 0 0 0 -0.041,-0.0312 l -1.20117,-0.83984 -1.19922,-0.83984 a 1.70017,1.70017 0 0 0 -0.0859,-0.0566 l -1.24023,-0.75976 a 1.70017,1.70017 0 0 0 -0.0547,-0.0332 l -1.28125,-0.71875 a 1.70017,1.70017 0 0 0 -0.0273,-0.0156 l -2.59961,-1.40039 a 1.70017,1.70017 0 0 0 -0.084,-0.041 l -2.63867,-1.24023 a 1.70017,1.70017 0 0 0 -0.084,-0.0371 l -2.75977,-1.11914 a 1.70017,1.70017 0 0 0 -0.041,-0.0156 l -2.75976,-1.04102 a 1.70017,1.70017 0 0 0 -0.0742,-0.0254 l -2.83984,-0.91992 a 1.70017,1.70017 0 0 0 -0.043,-0.0137 l -2.83985,-0.83985 a 1.70017,1.70017 0 0 0 -0.0488,-0.0137 l -2.87891,-0.75977 a 1.70017,1.70017 0 0 0 -0.0215,-0.008 l -2.88086,-0.71875 a 1.70017,1.70017 0 0 0 -0.043,-0.0117 l -2.88086,-0.63867 a 1.70017,1.70017 0 0 0 -0.0469,-0.01 l -2.92187,-0.56055 a 1.70017,1.70017 0 0 0 -0.0215,-0.004 l -2.91992,-0.52148 a 1.70017,1.70017 0 0 0 -0.0449,-0.006 l -2.91992,-0.44141 a 1.70017,1.70017 0 0 0 -0.0215,-0.002 l -2.91992,-0.40039 a 1.70017,1.70017 0 0 0 -0.0488,-0.006 l -2.96093,-0.32031 a 1.70017,1.70017 0 0 0 -0.0195,-0.002 l -2.91993,-0.27929 a 1.70017,1.70017 0 0 0 -0.0469,-0.004 l -2.96094,-0.20117 a 1.70017,1.70017 0 0 0 -0.0234,0 l -2.95898,-0.16016 a 1.70017,1.70017 0 0 0 -0.0234,-0.002 l -2.95898,-0.11914 a 1.70017,1.70017 0 0 0 -0.0234,-0.002 l -2.96094,-0.0801 a 1.70017,1.70017 0 0 0 -0.0449,0 h -2.96094 a 1.70017,1.70017 0 0 0 -0.0234,0 z m -7.71875,0.21875 -1.18946,0.0644 -2.95898,0.1582 a 1.70017,1.70017 0 0 0 -0.0234,0.002 l -2.96094,0.20117 a 1.70017,1.70017 0 0 0 -0.0469,0.004 l -2.91992,0.27929 a 1.70017,1.70017 0 0 0 -0.0215,0.002 l -5.88086,0.64062 a 1.70017,1.70017 0 0 0 -0.0352,0.004 l -5.83985,0.75976 a 1.70017,1.70017 0 0 0 -0.0469,0.008 l -5.80078,0.91993 a 1.70017,1.70017 0 0 0 -0.0215,0.002 l -5.80078,1 a 1.70017,1.70017 0 0 0 -0.0352,0.008 l -5.75977,1.11914 a 1.70017,1.70017 0 0 0 -0.0332,0.01 l -5.75977,1.24023 a 1.70017,1.70017 0 0 0 -0.0117,0.002 l -3.80859,0.8457 v 3.48437 l 4.54101,-1.00976 5.73829,-1.23633 5.7246,-1.11328 5.77149,-0.99414 5.76562,-0.91406 5.79883,-0.75586 5.85156,-0.63672 2.88477,-0.27539 2.92383,-0.19922 2.94922,-0.1582 1.00586,-0.0547 z m -52.35938,8.03906 -4.27929,0.98828 a 1.70017,1.70017 0 0 0 -0.0195,0.004 l -5.75976,1.40039 a 1.70017,1.70017 0 0 0 -0.004,0 l -11.43949,2.80078 a 1.7,1.7 0 0 0 -1.248,2.05469 1.7,1.7 0 0 0 2.0566,1.24804 l 11.43753,-2.80078 5.75,-1.39648 3.50586,-0.8086 z" /><path
       id="path363"
       d="m -604.79937,247.19156 -9.88,1.56 -4.92,0.8 -4.92,0.92 -4.92,1 -4.92,1.12 -4.88,1.28 -2.44,0.68 -2.4,0.72 -2.44,0.8 -2.4,0.84 -2.36,0.92 -2.36,1 -2.24,1.08 -2.2,1.2 -2.12,1.32 -1,0.72 -1,0.72 -0.96,0.76 -0.96,0.84 -1.8,1.68 -1.72,1.8 -1.64,1.88 -1.6,1.96 -1.56,2 -3.04,4.12"
       style="fill:none;stroke:#000000;stroke-width:3.4;stroke-linecap:round;stroke-linejoin:round;stroke-miterlimit:10;stroke-dasharray:none;stroke-opacity:1" /><path
       id="path364"
       style="baseline-shift:baseline;display:inline;overflow:visible;vector-effect:none;stroke-linecap:round;stroke-linejoin:round;stroke-miterlimit:10;enable-background:accumulate;stop-color:#000000"
       d="m -687.78486,297.61177 a 1.7,1.7 0 0 0 -1.02929,0.36524 l -9.35938,7.40039 a 1.70017,1.70017 0 0 0 -0.01,0.008 l -0.31446,0.25195 v 4.35743 l 2.43555,-1.95313 9.35547,-7.39648 a 1.7,1.7 0 0 0 0.27929,-2.38868 1.7,1.7 0 0 0 -1.13476,-0.63281 h -0.002 a 1.7,1.7 0 0 0 -0.22071,-0.0117 z m -14.11718,10.75586 -0.91993,0.73828 a 1.70017,1.70017 0 0 0 -0.0137,0.01 l -4.59961,3.75976 a 1.70017,1.70017 0 0 0 -0.0117,0.01 l -4.56054,3.80078 a 1.70017,1.70017 0 0 0 -0.0195,0.0156 l -4.51953,3.88086 a 1.70017,1.70017 0 0 0 -0.0117,0.01 l -4.48047,3.91992 a 1.70017,1.70017 0 0 0 -0.0176,0.0156 l -4.40039,3.96094 a 1.70017,1.70017 0 0 0 -0.0293,0.0273 l -4.32031,4.08008 a 1.70017,1.70017 0 0 0 -0.0293,0.0273 l -4.19922,4.16016 a 1.70017,1.70017 0 0 0 -0.0176,0.0176 l -4.16016,4.24023 a 1.70017,1.70017 0 0 0 -0.0234,0.0234 l -4.08008,4.32031 a 1.70017,1.70017 0 0 0 -0.0312,0.0352 l -3.96093,4.43945 a 1.70017,1.70017 0 0 0 -0.0215,0.0254 l -3.8789,4.51953 a 1.70017,1.70017 0 0 0 -0.0176,0.0176 l -0.63086,0.75781 v 5.31055 l 3.23437,-3.88086 3.86133,-4.49805 3.9336,-4.41015 4.05078,-4.29102 4.14062,-4.2207 4.17774,-4.13672 4.28906,-4.05078 4.37695,-3.93946 4.46485,-3.90625 4.5039,-3.86718 4.54492,-3.78711 3.37696,-2.75977 z m -52.35938,50.91211 -3.50781,4.41406 a 1.70017,1.70017 0 0 0 -0.0254,0.0332 l -3.60156,4.75976 a 1.70017,1.70017 0 0 0 -0.0176,0.0254 l -3.51953,4.83985 a 1.70017,1.70017 0 0 0 -0.0254,0.0332 l -3.39844,4.91992 a 1.70017,1.70017 0 0 0 -0.0176,0.0234 l -1.67969,2.51953 a 1.70017,1.70017 0 0 0 -0.0195,0.0332 l -1.60156,2.51953 a 1.70017,1.70017 0 0 0 -0.01,0.0156 l -1.55859,2.51953 a 1.70017,1.70017 0 0 0 -0.0234,0.0371 l -1.51956,2.59961 a 1.70017,1.70017 0 0 0 0,0.008 l -1.4804,2.56055 a 1.70017,1.70017 0 0 0 -0.029,0.0547 l -1.4004,2.63868 a 1.70017,1.70017 0 0 0 -0.01,0.0195 l -1.3594,2.63867 a 1.70017,1.70017 0 0 0 -0.012,0.0195 l -1.3203,2.63867 a 1.70017,1.70017 0 0 0 -0.025,0.0547 l -1.2403,2.7207 a 1.70017,1.70017 0 0 0 -0.018,0.0391 l -1.1601,2.71875 a 1.70017,1.70017 0 0 0 -0.01,0.0195 l -1.1191,2.7207 a 1.70017,1.70017 0 0 0 -0.027,0.0684 l -1,2.75977 a 1.70017,1.70017 0 0 0 -0.01,0.0273 l -0.959,2.80078 a 1.70017,1.70017 0 0 0 -0.01,0.0273 l -0.92,2.83985 a 1.70017,1.70017 0 0 0 -0.012,0.0352 l -0.8398,2.80078 a 1.70017,1.70017 0 0 0 -0.01,0.0332 l -0.8008,2.8789 a 1.70017,1.70017 0 0 0 -0.01,0.043 l -0.7207,2.88086 -0.7207,2.87891 a 1.70017,1.70017 0 0 0 -0.01,0.0469 l -1.2793,5.80078 a 1.70017,1.70017 0 0 0 -0.01,0.0371 l -1.1602,5.87891 a 1.70017,1.70017 0 0 0 -0.01,0.0215 l -1.0781,5.88086 a 1.70017,1.70017 0 0 0 0,0.0137 l -1.039,5.91992 a 1.7,1.7 0 0 0 1.3808,1.96875 1.7,1.7 0 0 0 1.9668,-1.38086 l 1.0391,-5.91406 1.0781,-5.86133 1.1543,-5.85156 1.2695,-5.75782 0.7149,-2.85742 0.7148,-2.85937 0.7891,-2.8418 0.8301,-2.76563 0.9101,-2.80859 0.9492,-2.77148 0.9825,-2.71094 1.1035,-2.67774 1.1465,-2.6914 1.2187,-2.67188 1.3027,-2.60351 1.3496,-2.62305 1.38091,-2.60351 1.46289,-2.5293 1.50586,-2.57813 1.54492,-2.49218 1.58398,-2.4961 1.66211,-2.49218 3.38086,-4.89258 3.49805,-4.81055 3.57812,-4.73047 0.83594,-1.05078 z" /><path
       id="path374"
       d="m -586.83937,247.71156 8.08,7.32 4.08,3.64 4.12,3.6 4.16,3.52 4.24,3.44 4.36,3.4 2.2,1.64 2.24,1.6 2.28,1.6 2.32,1.52 2.32,1.48 2.4,1.36 2.4,1.28 2.48,1.2 2.48,1.04 2.56,0.92 2.6,0.8 2.64,0.64 2.68,0.52 2.68,0.48 2.72,0.36 2.76,0.32 5.48,0.6"
       style="fill:none;stroke:#000000;stroke-width:3.4;stroke-linecap:round;stroke-linejoin:round;stroke-miterlimit:10;stroke-dasharray:none;stroke-opacity:1" /><path
       id="path703"
       d="m -672.43937,302.87156 6.36,17.08 6.36,17.04 3.12,8.56 3.04,8.56 2.96,8.64 1.4,4.32 1.4,4.32 1.32,4.36 1.24,4.4 1.16,4.4 1,4.44 0.88,4.48 0.4,2.24 0.36,2.28 0.28,2.24 0.28,2.28 0.2,2.28 0.16,2.28 0.12,2.28 0.08,2.28 0.04,2.28 -0.04,2.28 -0.08,2.32 -0.16,2.28 -0.2,2.28 -0.24,2.28 -0.32,2.28 -0.4,2.28 -0.44,2.28 -0.52,2.28 -0.56,2.24 -0.64,2.24 -0.68,2.24 -0.76,2.2 -0.84,2.16 -0.88,2.16 -0.96,2.08 -1,2.08 -1.08,2.04 -1.16,2 -1.2,1.92 -1.28,1.92 -1.32,1.84 -1.4,1.76 -1.48,1.76 -1.52,1.64 -1.56,1.64 -1.64,1.56 -1.68,1.48 -1.76,1.48 -1.76,1.4 -1.84,1.4 -1.84,1.32 -1.88,1.32 -3.84,2.56 -3.88,2.48 -7.84,4.84 -7.84,4.76 -7.8,4.68 -3.92,2.28 -3.96,2.24 -3.96,2.16 -4,2.12 -4.04,2.08 -4.08,1.96 -4.12,1.96 -4.12,1.84 -4.2,1.84 -4.16,1.8 -8.44,3.48 -8.48,3.44"
       style="fill:none;stroke:#000000;stroke-width:3.4;stroke-linecap:round;stroke-linejoin:round;stroke-miterlimit:10;stroke-dasharray:none;stroke-opacity:1" /><path
       id="path378"
       style="fill:#ff0000;fill-opacity:1;fill-rule:nonzero;stroke:#ff0000;stroke-width:0.04;stroke-linecap:round;stroke-linejoin:miter;stroke-miterlimit:10;stroke-dasharray:none;stroke-opacity:1"
       d="m -380.40016,57.310679 -0.55859,0.041 -1.20117,0.0801 -0.71875,0.11916 -1,0.12108 -0.80078,0.1992 -0.91993,0.24024 -0.75976,0.27932 -0.91992,0.28124 -0.75977,0.35936 -0.83984,0.3594 -0.72071,0.4414 -0.80078,0.43944 -0.71875,0.48048 -0.75976,0.51952 -0.64063,0.51952 -0.7207,0.59964 -0.59961,0.60156 -0.64062,0.5996 -0.5586,0.67968 -0.59961,0.67968 -0.52148,0.72072 -0.51953,0.71876 -0.43946,0.76172 -0.4414,0.75976 -0.35938,0.75976 -0.40039,0.83984 -0.2793,0.79884 -0.32031,0.8418 -0.24023,0.83984 -0.24024,0.83984 -0.16015,0.87888 -0.11914,0.880885 -0.0801,0.87892 -0.0801,0.88084 v 0.87892 0.88084 l 0.0801,0.88088 0.0801,0.87888 0.11914,0.88088 0.16015,0.83984 0.24024,0.87892 0.24023,0.83984 0.32031,0.8418 0.2793,0.7988 0.40039,0.8008 0.35938,0.79884 0.4414,0.75976 0.43946,0.76172 0.51953,0.71872 0.52148,0.72072 0.59961,0.67968 0.5586,0.64064 0.64062,0.63868 0.59961,0.60156 0.7207,0.55856 0.64063,0.56056 0.75976,0.51952 0.71875,0.48048 0.80078,0.43944 0.72071,0.4004 0.83984,0.4004 0.75977,0.32032 0.91992,0.32032 0.75976,0.27928 0.91993,0.19924 0.80078,0.20116 1,0.16016 0.71875,0.11912 1.20117,0.0801 0.55859,0.041 1.76172,-0.041 0.71875,-0.0801 1.04102,-0.11912 0.75976,-0.16016 0.95899,-0.20116 0.80078,-0.19924 0.91992,-0.27928 0.75977,-0.32032 0.88086,-0.32032 0.75976,-0.4004 0.79883,-0.4004 0.7207,-0.43944 0.80078,-0.48048 0.67969,-0.51952 0.71875,-0.56056 0.64063,-0.55856 0.67968,-0.60156 0.59961,-0.63868 0.60157,-0.64064 0.51952,-0.67968 0.56055,-0.72072 0.47852,-0.71872 0.48047,-0.76172 0.40039,-0.75976 0.43945,-0.79884 0.32031,-0.8008 0.35938,-0.7988 0.24023,-0.8418 0.28125,-0.83984 0.19922,-0.87892 0.19922,-0.83984 0.12109,-0.88088 0.11914,-0.87888 0.041,-0.88088 0.0391,-0.88084 -0.0391,-0.87892 -0.041,-0.88084 -0.11914,-0.87892 -0.12109,-0.880885 -0.19922,-0.87888 -0.19922,-0.83984 -0.28125,-0.83984 -0.24023,-0.8418 -0.35938,-0.79884 -0.32031,-0.83984 -0.43945,-0.75976 -0.40039,-0.75976 -0.48047,-0.76172 -0.47852,-0.71876 -0.56055,-0.72072 -0.51952,-0.67968 -0.60157,-0.67968 -0.59961,-0.5996 -0.67968,-0.60156 -0.64063,-0.59964 -0.71875,-0.51952 -0.67969,-0.51952 -0.80078,-0.48048 -0.7207,-0.43944 -0.79883,-0.4414 -0.75976,-0.3594 -0.88086,-0.35936 -0.75977,-0.28124 -0.91992,-0.27932 -0.80078,-0.24024 -0.95899,-0.1992 -0.75976,-0.12108 -1.04102,-0.11916 -0.71875,-0.0801 z m -274.55857,114.320281 -1.56056,0.16016 -1.51952,0.32032 -1.48048,0.43944 -1.4004,0.64064 -1.35936,0.75976 -1.28124,0.88088 -1.19924,1 -1.08008,1.11912 -0.91992,1.24024 -0.83984,1.32032 -0.67968,1.4004 -0.51952,1.43944 -0.4004,1.51952 -0.24024,1.51956 -0.0801,1.56052 0.0801,1.56056 0.24024,1.51952 0.4004,1.51952 0.51952,1.44144 0.67968,1.39844 0.83984,1.32028 0.91992,1.24024 1.08008,1.12112 1.19924,1 1.28124,0.87888 1.35936,0.75976 1.4004,0.64064 1.48048,0.43944 1.51952,0.32032 1.56056,0.16016 h 1.55856 l 1.56056,-0.16016 1.51952,-0.32032 1.48048,-0.43944 1.4004,-0.64064 1.35936,-0.75976 1.28128,-0.87888 1.1992,-1 1.03908,-1.12112 0.96092,-1.24024 0.83984,-1.32028 0.67968,-1.39844 0.51956,-1.44144 0.40036,-1.51952 0.24024,-1.51952 0.0801,-1.56056 -0.0801,-1.56052 -0.24024,-1.51956 -0.40036,-1.51952 -0.51956,-1.43944 -0.67968,-1.4004 -0.83984,-1.32032 -0.96092,-1.24024 -1.03908,-1.11912 -1.1992,-1 -1.28128,-0.88088 -1.35936,-0.75976 -1.4004,-0.64064 -1.48048,-0.43944 -1.51952,-0.32032 -1.56056,-0.16016 z m -23.24024,103.52148 -1.56056,0.15824 -1.51952,0.32028 -1.48048,0.44144 -1.4004,0.63864 -1.35936,0.75976 -1.27928,0.88088 -1.2012,1 -1.08008,1.11912 -0.91992,1.24024 -0.83984,1.32032 -0.67968,1.4004 -0.56056,1.43944 -0.35936,1.51956 -0.24024,1.52148 -0.0801,1.55856 0.0801,1.56056 0.24024,1.51952 0.35936,1.52152 0.56056,1.43944 0.67968,1.4004 0.83984,1.31836 0.91992,1.2402 1.08008,1.12112 1.2012,1 1.27928,0.91992 1.35936,0.71876 1.4004,0.6406 1.48048,0.43948 1.51952,0.32028 1.56056,0.16016 h 1.56052 l 1.51956,-0.16016 1.5586,-0.32028 1.48044,-0.43948 1.4004,-0.6406 1.35936,-0.71876 1.28128,-0.91992 1.1992,-1 1.04104,-1.12112 0.95896,-1.2402 0.83984,-1.31836 0.67968,-1.4004 0.52152,-1.43944 0.3984,-1.52152 0.24024,-1.51952 0.0801,-1.56056 -0.0801,-1.55856 -0.24024,-1.52148 -0.3984,-1.51956 -0.52152,-1.43944 -0.67968,-1.4004 -0.83984,-1.32032 -0.95896,-1.24024 -1.04104,-1.11912 -1.1992,-1 -1.28128,-0.88088 -1.35936,-0.75976 -1.4004,-0.63864 -1.48044,-0.44144 -1.5586,-0.32028 -1.51956,-0.15824 z m -115.99999,173.2383 -1.2813,0.0801 -1.2793,0.24023 -1.2402,0.36133 -1.1992,0.51953 -1.0801,0.67969 -1.041,0.80078 -0.92,0.91992 -0.7988,1 -0.6406,1.11914 -0.5606,1.19922 -0.3593,1.24023 -0.2403,1.24024 -0.08,1.32031 0.08,1.2793 0.2403,1.28125 0.3593,1.24023 0.5606,1.16016 0.6406,1.11914 0.7988,1 0.92,0.91992 1.041,0.80078 1.0801,0.67969 1.1992,0.51953 1.2402,0.40039 1.2793,0.24023 1.2813,0.0801 1.2793,-0.0801 1.2813,-0.24023 1.2382,-0.40039 1.1602,-0.51953 1.1211,-0.67969 1,-0.80078 0.9199,-0.91992 0.7988,-1 0.6817,-1.11914 0.5195,-1.16016 0.4004,-1.24023 0.2383,-1.28125 0.08,-1.2793 -0.08,-1.32031 -0.2383,-1.24024 -0.4004,-1.24023 -0.5195,-1.19922 -0.6817,-1.11914 -0.7988,-1 -0.9199,-0.91992 -1,-0.80078 -1.1212,-0.67969 -1.1601,-0.51953 -1.2383,-0.36133 -1.2812,-0.24023 z" /><path
       id="path434"
       style="fill:#0070c0;fill-opacity:1;fill-rule:nonzero;stroke:#0070c0;stroke-width:0.04;stroke-linecap:round;stroke-linejoin:miter;stroke-miterlimit:10;stroke-dasharray:none;stroke-opacity:1"
       d="m -784.03876,192.03136 -1.2813,0.16016 -1.2402,0.27932 -1.1993,0.4414 -1.1191,0.5586 -1.0801,0.72068 -0.9609,0.83984 -0.8789,0.91992 -0.7617,1 -0.6387,1.12112 -0.5195,1.1582 -0.3614,1.24024 -0.2402,1.2402 -0.08,1.28128 0.08,1.27928 0.2402,1.24024 0.3614,1.24024 0.5195,1.16016 0.6387,1.11912 0.7617,1 0.8789,0.96096 0.9609,0.7988 1.0801,0.72072 1.1191,0.56056 1.1993,0.43944 1.2402,0.27928 1.2813,0.16016 h 1.2792 l 1.2403,-0.16016 1.2792,-0.27928 1.2012,-0.43944 1.1192,-0.56056 1.08,-0.72072 0.961,-0.7988 0.8789,-0.96096 0.7597,-1 0.6407,-1.11912 0.51951,-1.16016 0.36136,-1.24024 0.1992,-1.24024 0.0801,-1.27928 -0.0801,-1.28128 -0.1992,-1.2402 -0.36136,-1.24024 -0.51951,-1.1582 -0.6407,-1.12112 -0.7597,-1 -0.8789,-0.91992 -0.961,-0.83984 -1.08,-0.72068 -1.1192,-0.5586 -1.2012,-0.4414 -1.2792,-0.27932 -1.2403,-0.16016 z m 272.27923,83.16016 -1.48048,0.16016 -1.43944,0.27928 -1.43944,0.44144 -1.36136,0.5996 -1.31836,0.71876 -1.20116,0.88084 -1.16016,0.959 -1,1.08008 -0.91992,1.16012 -0.7988,1.28128 -0.64064,1.32032 -0.51952,1.3984 -0.4004,1.44144 -0.19924,1.47852 -0.0801,1.52148 0.0801,1.47852 0.19924,1.48044 0.4004,1.43948 0.51952,1.40036 0.64064,1.32032 0.7988,1.27932 0.91992,1.16012 1,1.08008 1.16016,1 1.20116,0.83988 1.31836,0.72068 1.36136,0.5996 1.43944,0.4414 1.43944,0.27932 1.48048,0.16016 h 1.51952 l 1.48048,-0.16016 1.43944,-0.27932 1.4414,-0.4414 1.3594,-0.5996 1.32032,-0.72068 1.1992,-0.83988 1.16016,-1 1,-1.08008 0.91992,-1.16012 0.8008,-1.27932 0.63864,-1.32032 0.52152,-1.40036 0.3984,-1.43948 0.2012,-1.48044 0.0801,-1.47852 -0.0801,-1.52148 -0.2012,-1.47852 -0.3984,-1.44144 -0.52152,-1.3984 -0.63864,-1.32032 -0.8008,-1.28128 -0.91992,-1.16012 -1,-1.08008 -1.16016,-0.959 -1.1992,-0.88084 -1.32032,-0.71876 -1.3594,-0.5996 -1.4414,-0.44144 -1.43944,-0.27928 -1.48048,-0.16016 z m -106.80076,29.83984 -1.27932,0.16016 -1.24024,0.27928 -1.1992,0.44144 -1.12112,0.55856 -1.08004,0.72072 -1,0.8008 -0.83988,0.95896 -0.75976,1 -0.63868,1.1211 -0.52148,1.1582 -0.35936,1.24024 -0.24024,1.24023 -0.0801,1.28125 0.0801,1.2793 0.24024,1.24023 0.35936,1.24024 0.52148,1.16015 0.63868,1.11914 0.75976,1 0.83988,0.96094 1,0.79883 1.08004,0.7207 1.12112,0.56055 1.1992,0.43945 1.24024,0.2793 1.27932,0.16016 h 1.28124 l 1.24024,-0.16016 1.24024,-0.2793 1.1992,-0.43945 1.16016,-0.56055 1.08008,-0.7207 0.95896,-0.79883 0.88088,-0.96094 0.75976,-1 0.64064,-1.11914 0.51952,-1.16015 0.35936,-1.24024 0.2012,-1.24023 0.0801,-1.2793 -0.0801,-1.28125 -0.2012,-1.24023 -0.35936,-1.24024 -0.51952,-1.1582 -0.64064,-1.1211 -0.75976,-1 -0.88088,-0.95896 -0.95896,-0.8008 -1.08008,-0.72072 -1.16016,-0.55856 -1.1992,-0.44144 -1.24024,-0.27928 -1.24024,-0.16016 z m -155.99997,206.67969 -1.7188,0.0801 -1.6797,0.20118 -1.6406,0.39844 -1.6406,0.56054 -1.5586,0.67969 -1.4805,0.83984 -1.4004,0.96094 -1.3203,1.08008 -1.1992,1.19922 -1.0801,1.32031 -0.9609,1.40039 -0.8399,1.48047 -0.6797,1.55859 -0.5605,1.60157 -0.3594,1.67968 -0.2402,1.67969 -0.08,1.67969 0.08,1.7207 0.2402,1.67969 0.3594,1.67969 0.5605,1.5996 0.6797,1.56055 0.8399,1.48047 0.9609,1.40039 1.0801,1.31836 1.1992,1.20117 1.3203,1.08008 1.4004,0.95898 1.4805,0.83985 1.5586,0.67969 1.6406,0.56054 1.6406,0.40039 1.6797,0.19922 1.7188,0.0801 1.68161,-0.0801 1.71872,-0.19922 1.64064,-0.40039 1.5996,-0.56054 1.56056,-0.67969 1.48048,-0.83985 1.43944,-0.95898 1.27928,-1.08008 1.2012,-1.20117 1.11912,-1.31836 0.96096,-1.40039 0.7988,-1.48047 0.72072,-1.56055 0.51952,-1.5996 0.4004,-1.67969 0.24024,-1.67969 0.0801,-1.7207 -0.0801,-1.67969 -0.24024,-1.67969 -0.4004,-1.67968 -0.51952,-1.60157 -0.72072,-1.55859 -0.7988,-1.48047 -0.96096,-1.40039 -1.11912,-1.32031 -1.2012,-1.19922 -1.27928,-1.08008 -1.43944,-0.96094 -1.48048,-0.83984 -1.56056,-0.67969 -1.5996,-0.56054 -1.64064,-0.39844 -1.71872,-0.20118 z" /><path
       id="path516-5"
       style="fill:#ffc000;fill-opacity:1;fill-rule:nonzero;stroke:#ffc000;stroke-width:0.04;stroke-linecap:round;stroke-linejoin:miter;stroke-miterlimit:10;stroke-dasharray:none;stroke-opacity:1"
       d="m -539.11889,163.79112 -1.24024,0.0801 -1.2012,0.2012 -1.1992,0.35936 -1.11912,0.51952 -1.08008,0.64064 -0.96096,0.75976 -0.87892,0.87892 -0.76168,1 -0.63868,1.041 -0.51956,1.11916 -0.36132,1.20116 -0.1992,1.1992 -0.0801,1.24024 0.0801,1.24024 0.1992,1.24024 0.36132,1.16016 0.51956,1.11912 0.63868,1.08008 0.76168,0.96096 0.87892,0.87888 0.96096,0.7598 1.08008,0.6406 1.11912,0.51952 1.1992,0.36136 1.2012,0.23828 1.24024,0.041 1.24024,-0.041 1.1992,-0.23828 1.1992,-0.36136 1.12112,-0.51952 1.08008,-0.6406 0.95896,-0.7598 0.88088,-0.87888 0.75976,-0.96096 0.64064,-1.08008 0.51952,-1.11912 0.35936,-1.16016 0.24024,-1.24024 0.041,-1.24024 -0.041,-1.24024 -0.24024,-1.1992 -0.35936,-1.20116 -0.51952,-1.11916 -0.64064,-1.041 -0.75976,-1 -0.88088,-0.87892 -0.95896,-0.75976 -1.08008,-0.64064 -1.12112,-0.51952 -1.1992,-0.35936 -1.1992,-0.2012 z m 128.24022,13.56056 -1.20118,0.0801 -1.24023,0.24024 -1.16015,0.35936 -1.15821,0.51952 -1.04101,0.64064 -1,0.75976 -0.83985,0.88088 -0.80078,0.95896 -0.63867,1.04104 -0.48047,1.16016 -0.35937,1.16016 -0.24024,1.23828 -0.0801,1.2402 0.0801,1.24024 0.24024,1.2012 0.35937,1.1992 0.48047,1.11916 0.63867,1.041 0.80078,1 0.83985,0.83984 1,0.8008 1.04101,0.63864 1.15821,0.48048 1.16015,0.4004 1.24023,0.1992 1.20118,0.0801 1.24023,-0.0801 1.23828,-0.1992 1.16016,-0.4004 1.16015,-0.48048 1.04102,-0.63864 0.95898,-0.8008 0.88086,-0.83984 0.75977,-1 0.64063,-1.041 0.51953,-1.11916 0.35937,-1.1992 0.24024,-1.2012 0.0801,-1.24024 -0.0801,-1.2402 -0.24024,-1.23828 -0.35937,-1.16016 -0.51953,-1.16016 -0.64063,-1.04104 -0.75977,-0.95896 -0.88086,-0.88088 -0.95898,-0.75976 -1.04102,-0.64064 -1.16015,-0.51952 -1.16016,-0.35936 -1.23828,-0.24024 z m -269.68162,33.75976 -1.23828,0.0801 -1.2012,0.24024 -1.1992,0.35936 -1.12112,0.51956 -1.08008,0.6406 -0.95896,0.75976 -0.88088,0.88088 -0.75976,0.95896 -0.63868,1.08008 -0.52148,1.12112 -0.35936,1.16016 -0.24024,1.24024 -0.039,1.23828 0.039,1.2402 0.24024,1.2012 0.35936,1.1992 0.52148,1.12112 0.63868,1.03904 0.75976,1 0.88088,0.88088 0.95896,0.75976 1.08008,0.63868 1.12112,0.48044 1.1992,0.4004 1.2012,0.1992 1.23828,0.0801 1.2402,-0.0801 1.2012,-0.1992 1.1992,-0.4004 1.12112,-0.48044 1.08008,-0.63868 0.95896,-0.75976 0.88088,-0.88088 0.75976,-1 0.63868,-1.03904 0.52148,-1.12112 0.35936,-1.1992 0.1992,-1.2012 0.0801,-1.2402 -0.0801,-1.23828 -0.1992,-1.24024 -0.35936,-1.16016 -0.52148,-1.12112 -0.63868,-1.08008 -0.75976,-0.95896 -0.88088,-0.88088 -0.95896,-0.75976 -1.08008,-0.6406 -1.12112,-0.51956 -1.1992,-0.35936 -1.2012,-0.24024 z m 34.60156,152.43946 -1.24024,0.041 -1.2012,0.24023 -1.1992,0.35938 -1.11916,0.51953 -1.041,0.64063 -1,0.75976 -0.87892,0.88086 -0.76172,0.95898 -0.63864,1.08008 -0.48048,1.1211 -0.4004,1.19922 -0.1992,1.19922 -0.0801,1.24023 0.0801,1.24023 0.1992,1.20118 0.4004,1.19921 0.48048,1.11915 0.63864,1.08007 0.76172,0.96094 0.87892,0.87891 1,0.76172 1.041,0.63867 1.11916,0.51953 1.1992,0.36133 1.2012,0.19921 1.24024,0.0801 1.2402,-0.0801 1.23832,-0.19921 1.16012,-0.36133 1.12112,-0.51953 1.08008,-0.63867 0.95896,-0.76172 0.88088,-0.87891 0.75976,-0.96094 0.64064,-1.08007 0.51952,-1.11915 0.35936,-1.19921 0.24024,-1.20118 0.0801,-1.24023 -0.0801,-1.24023 -0.24024,-1.19922 -0.35936,-1.19922 -0.51952,-1.1211 -0.64064,-1.08008 -0.75976,-0.95898 -0.88088,-0.88086 -0.95896,-0.75976 -1.08008,-0.64063 -1.12112,-0.51953 -1.16012,-0.35938 -1.23832,-0.24023 z" /><path
       id="path594"
       style="fill:#ffffff;fill-opacity:1;fill-rule:nonzero;stroke:#ffffff;stroke-width:0.04;stroke-linecap:round;stroke-linejoin:miter;stroke-miterlimit:10;stroke-dasharray:none;stroke-opacity:1"
       d="m -591.15993,225.31068 -1.75976,0.0801 -1.75976,0.2402 -1.72072,0.36136 -1.67968,0.51952 -1.63868,0.67968 -1.56052,0.83984 -1.48048,0.96096 -1.4004,1.03904 -1.32032,1.19924 -1.1992,1.32028 -1.08008,1.4004 -0.959,1.48048 -0.80076,1.5996 -0.67968,1.5996 -0.51956,1.72072 -0.40036,1.72072 -0.2012,1.75976 -0.0801,1.75976 0.0801,1.75976 0.2012,1.75976 0.40036,1.72072 0.51956,1.67968 0.67968,1.64064 0.80076,1.55856 0.959,1.51956 1.08008,1.40036 1.1992,1.28128 1.32032,1.1992 1.4004,1.08008 1.48048,0.96092 1.56052,0.79884 1.63868,0.67968 1.67968,0.52148 1.72072,0.39844 1.75976,0.24024 1.75976,0.0801 1.8008,-0.0801 1.75976,-0.24024 1.72072,-0.39844 1.67968,-0.52148 1.63868,-0.67968 1.56052,-0.79884 1.48048,-0.96092 1.4004,-1.08008 1.32028,-1.1992 1.19924,-1.28128 1.08008,-1.40036 0.91992,-1.51956 0.83984,-1.55856 0.67968,-1.64064 0.51956,-1.67968 0.40036,-1.72072 0.2012,-1.75976 0.0801,-1.75976 -0.0801,-1.75976 -0.2012,-1.75976 -0.40036,-1.72072 -0.51956,-1.72072 -0.67968,-1.5996 -0.83984,-1.5996 -0.91992,-1.48048 -1.08008,-1.4004 -1.19924,-1.32028 -1.32028,-1.19924 -1.4004,-1.03904 -1.48048,-0.96096 -1.56052,-0.83984 -1.63868,-0.67968 -1.67968,-0.51952 -1.72072,-0.36136 -1.75976,-0.2402 z" /></g><g
     id="layer-oc3"
     inkscape:groupmode="layer"
     inkscape:label="links_thin"
     transform="matrix(0.26458334,0,0,0.26458334,220.00001,0)" /><g
     id="layer-oc4"
     inkscape:groupmode="layer"
     inkscape:label="links_thick"
     transform="matrix(0.26458334,0,0,0.26458334,220.00001,0)" /><g
     id="layer-oc6"
     inkscape:groupmode="layer"
     inkscape:label="red_node"
     transform="matrix(0.26458334,0,0,0.26458334,220.00001,0)" /><g
     id="layer-oc7"
     inkscape:groupmode="layer"
     inkscape:label="blue_nodel"
     transform="matrix(0.26458334,0,0,0.26458334,220.00001,0)" /><g
     id="layer-oc8"
     inkscape:groupmode="layer"
     inkscape:label="yellow_node"
     transform="matrix(0.26458334,0,0,0.26458334,220.00001,0)" /><g
     id="layer-oc9"
     inkscape:groupmode="layer"
     inkscape:label="node_white"
     transform="matrix(0.26458334,0,0,0.26458334,220.00001,0)" /></svg>
